<mxfile host="app.diagrams.net" agent="Mozilla/5.0 (Windows NT 10.0; Win64; x64) AppleWebKit/537.36 (KHTML, like Gecko) Chrome/127.0.0.0 Safari/537.36" version="24.7.6">
  <diagram name="Page-1" id="T3v67PJg_zccj8vT8T6A">
    <mxGraphModel dx="1029" dy="1256" grid="1" gridSize="10" guides="1" tooltips="1" connect="1" arrows="1" fold="1" page="1" pageScale="1" pageWidth="850" pageHeight="1100" math="0" shadow="0">
      <root>
        <mxCell id="0" />
        <mxCell id="1" parent="0" />
        <mxCell id="FDHRYnm7bNjMq-bkD99A-1" value="&lt;font style=&quot;font-size: 14px;&quot;&gt;DATA SET&lt;/font&gt;" style="shape=cylinder3;whiteSpace=wrap;html=1;boundedLbl=1;backgroundOutline=1;size=15;fontStyle=1" parent="1" vertex="1">
          <mxGeometry x="640" y="200" width="160" height="80" as="geometry" />
        </mxCell>
        <mxCell id="FDHRYnm7bNjMq-bkD99A-2" value="&lt;span&gt;&lt;font style=&quot;font-size: 18px;&quot;&gt;ORVARALL&amp;nbsp; ARCHITECTURE&amp;nbsp;&amp;nbsp;&lt;/font&gt;&lt;/span&gt;" style="rounded=0;whiteSpace=wrap;html=1;fontStyle=1" parent="1" vertex="1">
          <mxGeometry x="190" y="110" width="990" height="60" as="geometry" />
        </mxCell>
        <mxCell id="FDHRYnm7bNjMq-bkD99A-4" value="&lt;span&gt;&lt;font style=&quot;font-size: 14px;&quot;&gt;PRE - PROCESSING DATA&lt;/font&gt;&lt;/span&gt;" style="shape=cylinder3;whiteSpace=wrap;html=1;boundedLbl=1;backgroundOutline=1;size=15;fontStyle=1" parent="1" vertex="1">
          <mxGeometry x="910" y="880" width="150" height="80" as="geometry" />
        </mxCell>
        <mxCell id="2z5COon9l6sAhe7B8v7s-29" style="edgeStyle=orthogonalEdgeStyle;rounded=0;orthogonalLoop=1;jettySize=auto;html=1;exitX=0.5;exitY=1;exitDx=0;exitDy=0;entryX=0.75;entryY=0;entryDx=0;entryDy=0;" edge="1" parent="1" source="FDHRYnm7bNjMq-bkD99A-5" target="FDHRYnm7bNjMq-bkD99A-9">
          <mxGeometry relative="1" as="geometry" />
        </mxCell>
        <mxCell id="FDHRYnm7bNjMq-bkD99A-5" value="&lt;span&gt;&lt;font style=&quot;font-size: 12px;&quot;&gt;USER INPUT(SYMPTOMS)&lt;/font&gt;&lt;/span&gt;" style="rounded=0;whiteSpace=wrap;html=1;fontStyle=1" parent="1" vertex="1">
          <mxGeometry x="260" y="330" width="140" height="60" as="geometry" />
        </mxCell>
        <mxCell id="FDHRYnm7bNjMq-bkD99A-30" style="edgeStyle=orthogonalEdgeStyle;rounded=0;orthogonalLoop=1;jettySize=auto;html=1;fontStyle=1" parent="1" source="FDHRYnm7bNjMq-bkD99A-6" target="FDHRYnm7bNjMq-bkD99A-5" edge="1">
          <mxGeometry relative="1" as="geometry" />
        </mxCell>
        <mxCell id="FDHRYnm7bNjMq-bkD99A-6" value="&lt;span&gt;&lt;font style=&quot;font-size: 14px;&quot;&gt;USER DATA&amp;nbsp;&lt;/font&gt;&lt;/span&gt;" style="rounded=0;whiteSpace=wrap;html=1;fontStyle=1" parent="1" vertex="1">
          <mxGeometry x="260" y="200" width="140" height="60" as="geometry" />
        </mxCell>
        <mxCell id="2z5COon9l6sAhe7B8v7s-28" style="edgeStyle=orthogonalEdgeStyle;rounded=0;orthogonalLoop=1;jettySize=auto;html=1;exitX=0;exitY=0.5;exitDx=0;exitDy=0;entryX=1;entryY=0.5;entryDx=0;entryDy=0;" edge="1" parent="1" source="FDHRYnm7bNjMq-bkD99A-7" target="FDHRYnm7bNjMq-bkD99A-9">
          <mxGeometry relative="1" as="geometry" />
        </mxCell>
        <mxCell id="FDHRYnm7bNjMq-bkD99A-7" value="&lt;font style=&quot;font-size: 12px;&quot;&gt;DISEASE PREDICTION MODEL&amp;nbsp;&lt;/font&gt;" style="rounded=0;whiteSpace=wrap;html=1;fontStyle=1" parent="1" vertex="1">
          <mxGeometry x="460" y="510" width="150" height="60" as="geometry" />
        </mxCell>
        <mxCell id="2z5COon9l6sAhe7B8v7s-27" style="edgeStyle=orthogonalEdgeStyle;rounded=0;orthogonalLoop=1;jettySize=auto;html=1;exitX=0.5;exitY=0;exitDx=0;exitDy=0;entryX=0.5;entryY=1;entryDx=0;entryDy=0;" edge="1" parent="1" source="FDHRYnm7bNjMq-bkD99A-8" target="FDHRYnm7bNjMq-bkD99A-7">
          <mxGeometry relative="1" as="geometry" />
        </mxCell>
        <mxCell id="FDHRYnm7bNjMq-bkD99A-8" value="MACHIN&lt;span style=&quot;color: rgba(0, 0, 0, 0); font-family: monospace; text-align: start; text-wrap: nowrap; font-size: 0px;&quot;&gt;%3CmxGraphModel%3E%3Croot%3E%3CmxCell%20id%3D%220%22%2F%3E%3CmxCell%20id%3D%221%22%20parent%3D%220%22%2F%3E%3CmxCell%20id%3D%222%22%20value%3D%22SPLITING%20DATA%22%20style%3D%22rounded%3D0%3BwhiteSpace%3Dwrap%3Bhtml%3D1%3B%22%20vertex%3D%221%22%20parent%3D%221%22%3E%3CmxGeometry%20x%3D%221820%22%20y%3D%22340%22%20width%3D%22150%22%20height%3D%2260%22%20as%3D%22geometry%22%2F%3E%3C%2FmxCell%3E%3C%2Froot%3E%3C%2FmxGraphModel%3E&lt;/span&gt;E LE&lt;span style=&quot;color: rgba(0, 0, 0, 0); font-family: monospace; text-align: start; text-wrap: nowrap; font-size: 0px;&quot;&gt;%3CmxGraphModel%3E%3Croot%3E%3CmxCell%20id%3D%220%22%2F%3E%3CmxCell%20id%3D%221%22%20parent%3D%220%22%2F%3E%3CmxCell%20id%3D%222%22%20value%3D%22SPLITING%20DATA%22%20style%3D%22rounded%3D0%3BwhiteSpace%3Dwrap%3Bhtml%3D1%3B%22%20vertex%3D%221%22%20parent%3D%221%22%3E%3CmxGeometry%20x%3D%221820%22%20y%3D%22340%22%20width%3D%22150%22%20height%3D%2260%22%20as%3D%22geometry%22%2F%3E%3C%2FmxCell%3E%3C%2Froot%3E%3C%2FmxGraphModel%3E&lt;/span&gt;ARNIG MODEL" style="rounded=0;whiteSpace=wrap;html=1;fontStyle=1" parent="1" vertex="1">
          <mxGeometry x="450" y="655" width="170" height="60" as="geometry" />
        </mxCell>
        <mxCell id="FDHRYnm7bNjMq-bkD99A-9" value="&lt;span&gt;&lt;font style=&quot;font-size: 14px;&quot;&gt;&lt;b&gt;PREDICTED RESULT&lt;/b&gt;&lt;/font&gt;&lt;/span&gt;" style="rounded=0;whiteSpace=wrap;html=1;fontStyle=0" parent="1" vertex="1">
          <mxGeometry x="230" y="505" width="140" height="60" as="geometry" />
        </mxCell>
        <mxCell id="2z5COon9l6sAhe7B8v7s-26" style="edgeStyle=orthogonalEdgeStyle;rounded=0;orthogonalLoop=1;jettySize=auto;html=1;exitX=0.5;exitY=0;exitDx=0;exitDy=0;" edge="1" parent="1" source="FDHRYnm7bNjMq-bkD99A-10" target="FDHRYnm7bNjMq-bkD99A-8">
          <mxGeometry relative="1" as="geometry" />
        </mxCell>
        <mxCell id="FDHRYnm7bNjMq-bkD99A-10" value="&lt;font style=&quot;font-size: 14px;&quot;&gt;SYSTEM PERFORMING CLASSIFICATION&lt;/font&gt;" style="rounded=0;whiteSpace=wrap;html=1;fontStyle=1" parent="1" vertex="1">
          <mxGeometry x="460" y="820" width="150" height="60" as="geometry" />
        </mxCell>
        <mxCell id="FDHRYnm7bNjMq-bkD99A-42" value="&lt;span&gt;&lt;font style=&quot;font-size: 18px;&quot;&gt;SYSTEM&amp;nbsp; DESIGN&lt;/font&gt;&lt;/span&gt;" style="rounded=0;whiteSpace=wrap;html=1;fontStyle=1" parent="1" vertex="1">
          <mxGeometry x="1310" y="110" width="990" height="60" as="geometry" />
        </mxCell>
        <mxCell id="FDHRYnm7bNjMq-bkD99A-116" style="edgeStyle=orthogonalEdgeStyle;rounded=0;orthogonalLoop=1;jettySize=auto;html=1;exitX=1;exitY=0.5;exitDx=0;exitDy=0;exitPerimeter=0;entryX=0;entryY=0.5;entryDx=0;entryDy=0;fontStyle=1" parent="1" source="FDHRYnm7bNjMq-bkD99A-44" target="FDHRYnm7bNjMq-bkD99A-95" edge="1">
          <mxGeometry relative="1" as="geometry" />
        </mxCell>
        <mxCell id="FDHRYnm7bNjMq-bkD99A-44" value="&lt;font style=&quot;font-size: 14px;&quot;&gt;DIABETES DISEASE&lt;/font&gt;" style="shape=cylinder3;whiteSpace=wrap;html=1;boundedLbl=1;backgroundOutline=1;size=15;fontStyle=1" parent="1" vertex="1">
          <mxGeometry x="2373" y="180" width="177" height="80" as="geometry" />
        </mxCell>
        <mxCell id="FDHRYnm7bNjMq-bkD99A-72" style="edgeStyle=orthogonalEdgeStyle;rounded=0;orthogonalLoop=1;jettySize=auto;html=1;exitX=0.5;exitY=0;exitDx=0;exitDy=0;entryX=0;entryY=0.5;entryDx=0;entryDy=0;fontStyle=1" parent="1" source="FDHRYnm7bNjMq-bkD99A-46" target="FDHRYnm7bNjMq-bkD99A-62" edge="1">
          <mxGeometry relative="1" as="geometry" />
        </mxCell>
        <mxCell id="FDHRYnm7bNjMq-bkD99A-46" value="&lt;span&gt;&lt;font style=&quot;font-size: 18px;&quot;&gt;DATA&lt;br&gt;&lt;span style=&quot;forced-color-adjust: none; color: rgb(0, 0, 0); font-family: Helvetica; font-style: normal; font-variant-ligatures: normal; font-variant-caps: normal; letter-spacing: normal; orphans: 2; text-align: center; text-indent: 0px; text-transform: none; widows: 2; word-spacing: 0px; -webkit-text-stroke-width: 0px; white-space: normal; background-color: rgb(251, 251, 251); text-decoration-thickness: initial; text-decoration-style: initial; text-decoration-color: initial;&quot;&gt;PRE - PROCESSING&amp;nbsp;&lt;/span&gt;&lt;/font&gt;&lt;br&gt;&lt;/span&gt;" style="rounded=0;whiteSpace=wrap;html=1;fontStyle=1" parent="1" vertex="1">
          <mxGeometry x="1570" y="335" width="150" height="230" as="geometry" />
        </mxCell>
        <mxCell id="FDHRYnm7bNjMq-bkD99A-47" value="&lt;font style=&quot;font-size: 18px;&quot;&gt;DISEASE DATASET-01&lt;/font&gt;" style="rounded=0;whiteSpace=wrap;html=1;fontStyle=1" parent="1" vertex="1">
          <mxGeometry x="1300" y="320" width="150" height="60" as="geometry" />
        </mxCell>
        <mxCell id="FDHRYnm7bNjMq-bkD99A-48" value="&lt;font style=&quot;font-size: 18px;&quot;&gt;&lt;br&gt;&lt;span style=&quot;color: rgb(0, 0, 0); font-family: Helvetica; font-style: normal; font-variant-ligatures: normal; font-variant-caps: normal; letter-spacing: normal; orphans: 2; text-align: center; text-indent: 0px; text-transform: none; widows: 2; word-spacing: 0px; -webkit-text-stroke-width: 0px; white-space: normal; background-color: rgb(251, 251, 251); text-decoration-thickness: initial; text-decoration-style: initial; text-decoration-color: initial; float: none; display: inline !important;&quot;&gt;DISEASE DATA SET-03&lt;/span&gt;&lt;/font&gt;&lt;div&gt;&lt;br&gt;&lt;/div&gt;" style="rounded=0;whiteSpace=wrap;html=1;fontStyle=1" parent="1" vertex="1">
          <mxGeometry x="1300" y="530" width="150" height="60" as="geometry" />
        </mxCell>
        <mxCell id="FDHRYnm7bNjMq-bkD99A-57" style="edgeStyle=orthogonalEdgeStyle;rounded=0;orthogonalLoop=1;jettySize=auto;html=1;exitX=1;exitY=0.5;exitDx=0;exitDy=0;entryX=0;entryY=0.5;entryDx=0;entryDy=0;fontStyle=1" parent="1" source="FDHRYnm7bNjMq-bkD99A-49" target="FDHRYnm7bNjMq-bkD99A-46" edge="1">
          <mxGeometry relative="1" as="geometry" />
        </mxCell>
        <mxCell id="FDHRYnm7bNjMq-bkD99A-49" value="&lt;font style=&quot;font-size: 18px;&quot;&gt;&lt;br&gt;&lt;span style=&quot;color: rgb(0, 0, 0); font-family: Helvetica; font-style: normal; font-variant-ligatures: normal; font-variant-caps: normal; letter-spacing: normal; orphans: 2; text-align: center; text-indent: 0px; text-transform: none; widows: 2; word-spacing: 0px; -webkit-text-stroke-width: 0px; white-space: normal; background-color: rgb(251, 251, 251); text-decoration-thickness: initial; text-decoration-style: initial; text-decoration-color: initial; float: none; display: inline !important;&quot;&gt;DISEASE DATA SET -02&lt;/span&gt;&lt;/font&gt;&lt;div&gt;&lt;br&gt;&lt;/div&gt;" style="rounded=0;whiteSpace=wrap;html=1;fontStyle=1" parent="1" vertex="1">
          <mxGeometry x="1300" y="420" width="150" height="60" as="geometry" />
        </mxCell>
        <mxCell id="FDHRYnm7bNjMq-bkD99A-60" style="edgeStyle=orthogonalEdgeStyle;rounded=0;orthogonalLoop=1;jettySize=auto;html=1;exitX=1;exitY=0.25;exitDx=0;exitDy=0;entryX=-0.009;entryY=0.913;entryDx=0;entryDy=0;entryPerimeter=0;fontStyle=1" parent="1" source="FDHRYnm7bNjMq-bkD99A-48" target="FDHRYnm7bNjMq-bkD99A-46" edge="1">
          <mxGeometry relative="1" as="geometry" />
        </mxCell>
        <mxCell id="FDHRYnm7bNjMq-bkD99A-61" style="edgeStyle=orthogonalEdgeStyle;rounded=0;orthogonalLoop=1;jettySize=auto;html=1;exitX=1;exitY=0.75;exitDx=0;exitDy=0;entryX=-0.009;entryY=0.13;entryDx=0;entryDy=0;entryPerimeter=0;fontStyle=1" parent="1" source="FDHRYnm7bNjMq-bkD99A-47" target="FDHRYnm7bNjMq-bkD99A-46" edge="1">
          <mxGeometry relative="1" as="geometry" />
        </mxCell>
        <mxCell id="FDHRYnm7bNjMq-bkD99A-62" value="&lt;font style=&quot;font-size: 18px;&quot;&gt;SPLITING DATA&lt;/font&gt;" style="rounded=0;whiteSpace=wrap;html=1;fontStyle=1" parent="1" vertex="1">
          <mxGeometry x="1820" y="270" width="170" height="60" as="geometry" />
        </mxCell>
        <mxCell id="FDHRYnm7bNjMq-bkD99A-82" style="edgeStyle=orthogonalEdgeStyle;rounded=0;orthogonalLoop=1;jettySize=auto;html=1;exitX=0.5;exitY=1;exitDx=0;exitDy=0;fontStyle=1" parent="1" source="FDHRYnm7bNjMq-bkD99A-64" target="FDHRYnm7bNjMq-bkD99A-67" edge="1">
          <mxGeometry relative="1" as="geometry" />
        </mxCell>
        <mxCell id="FDHRYnm7bNjMq-bkD99A-64" value="&lt;font style=&quot;font-size: 14px;&quot;&gt;LOGISTIC REGRESSION&lt;/font&gt;" style="rounded=0;whiteSpace=wrap;html=1;fontStyle=1" parent="1" vertex="1">
          <mxGeometry x="1760" y="520" width="150" height="60" as="geometry" />
        </mxCell>
        <mxCell id="FDHRYnm7bNjMq-bkD99A-84" style="edgeStyle=orthogonalEdgeStyle;rounded=0;orthogonalLoop=1;jettySize=auto;html=1;entryX=1;entryY=0.5;entryDx=0;entryDy=0;fontStyle=1" parent="1" source="FDHRYnm7bNjMq-bkD99A-65" target="FDHRYnm7bNjMq-bkD99A-67" edge="1">
          <mxGeometry relative="1" as="geometry">
            <mxPoint x="2030" y="690" as="targetPoint" />
            <Array as="points">
              <mxPoint x="2060" y="660" />
            </Array>
          </mxGeometry>
        </mxCell>
        <mxCell id="FDHRYnm7bNjMq-bkD99A-65" value="&lt;font style=&quot;font-size: 18px;&quot;&gt;TEST SET&lt;/font&gt;" style="rounded=0;whiteSpace=wrap;html=1;fontStyle=1" parent="1" vertex="1">
          <mxGeometry x="1970" y="390" width="150" height="60" as="geometry" />
        </mxCell>
        <mxCell id="FDHRYnm7bNjMq-bkD99A-66" value="&lt;font style=&quot;font-size: 18px;&quot;&gt;TRAINING SET&lt;/font&gt;" style="rounded=0;whiteSpace=wrap;html=1;fontStyle=1" parent="1" vertex="1">
          <mxGeometry x="1750" y="390" width="150" height="60" as="geometry" />
        </mxCell>
        <mxCell id="FDHRYnm7bNjMq-bkD99A-67" value="&lt;font style=&quot;font-size: 18px;&quot;&gt;PREDICTION&lt;/font&gt;" style="rounded=0;whiteSpace=wrap;html=1;fontStyle=1" parent="1" vertex="1">
          <mxGeometry x="1760" y="630" width="150" height="60" as="geometry" />
        </mxCell>
        <mxCell id="FDHRYnm7bNjMq-bkD99A-75" value="" style="endArrow=classic;html=1;rounded=0;exitX=0.168;exitY=1.016;exitDx=0;exitDy=0;exitPerimeter=0;entryX=0.66;entryY=0;entryDx=0;entryDy=0;entryPerimeter=0;fontStyle=1" parent="1" source="FDHRYnm7bNjMq-bkD99A-62" target="FDHRYnm7bNjMq-bkD99A-66" edge="1">
          <mxGeometry width="50" height="50" relative="1" as="geometry">
            <mxPoint x="1870" y="350" as="sourcePoint" />
            <mxPoint x="1849" y="380" as="targetPoint" />
          </mxGeometry>
        </mxCell>
        <mxCell id="FDHRYnm7bNjMq-bkD99A-79" value="" style="endArrow=classic;html=1;rounded=0;exitX=0.943;exitY=1.036;exitDx=0;exitDy=0;exitPerimeter=0;entryX=0.084;entryY=-0.036;entryDx=0;entryDy=0;entryPerimeter=0;fontStyle=1" parent="1" source="FDHRYnm7bNjMq-bkD99A-62" target="FDHRYnm7bNjMq-bkD99A-65" edge="1">
          <mxGeometry width="50" height="50" relative="1" as="geometry">
            <mxPoint x="2120" y="270" as="sourcePoint" />
            <mxPoint x="1990" y="400" as="targetPoint" />
            <Array as="points" />
          </mxGeometry>
        </mxCell>
        <mxCell id="FDHRYnm7bNjMq-bkD99A-81" style="edgeStyle=orthogonalEdgeStyle;rounded=0;orthogonalLoop=1;jettySize=auto;html=1;fontStyle=1" parent="1" source="FDHRYnm7bNjMq-bkD99A-66" edge="1">
          <mxGeometry relative="1" as="geometry">
            <mxPoint x="1825" y="520" as="targetPoint" />
          </mxGeometry>
        </mxCell>
        <mxCell id="FDHRYnm7bNjMq-bkD99A-90" value="&lt;span&gt;&lt;font style=&quot;font-size: 18px;&quot;&gt;BLOCK DIAGRAM&lt;/font&gt;&lt;/span&gt;" style="rounded=0;whiteSpace=wrap;html=1;fontStyle=1" parent="1" vertex="1">
          <mxGeometry x="2373" y="40" width="990" height="60" as="geometry" />
        </mxCell>
        <mxCell id="FDHRYnm7bNjMq-bkD99A-117" style="edgeStyle=orthogonalEdgeStyle;rounded=0;orthogonalLoop=1;jettySize=auto;html=1;entryX=0;entryY=0.5;entryDx=0;entryDy=0;fontStyle=1" parent="1" source="FDHRYnm7bNjMq-bkD99A-92" target="FDHRYnm7bNjMq-bkD99A-95" edge="1">
          <mxGeometry relative="1" as="geometry" />
        </mxCell>
        <mxCell id="FDHRYnm7bNjMq-bkD99A-92" value="&lt;font style=&quot;font-size: 14px;&quot;&gt;KIDNEY DISEASE&lt;/font&gt;" style="shape=cylinder3;whiteSpace=wrap;html=1;boundedLbl=1;backgroundOutline=1;size=15;fontStyle=1" parent="1" vertex="1">
          <mxGeometry x="2373" y="325" width="177" height="80" as="geometry" />
        </mxCell>
        <mxCell id="FDHRYnm7bNjMq-bkD99A-118" style="edgeStyle=orthogonalEdgeStyle;rounded=0;orthogonalLoop=1;jettySize=auto;html=1;exitX=1;exitY=0.5;exitDx=0;exitDy=0;exitPerimeter=0;entryX=0;entryY=0.5;entryDx=0;entryDy=0;fontStyle=1" parent="1" source="FDHRYnm7bNjMq-bkD99A-93" target="FDHRYnm7bNjMq-bkD99A-95" edge="1">
          <mxGeometry relative="1" as="geometry" />
        </mxCell>
        <mxCell id="FDHRYnm7bNjMq-bkD99A-93" value="&lt;font style=&quot;font-size: 14px;&quot;&gt;HEART DISEASE&lt;/font&gt;" style="shape=cylinder3;whiteSpace=wrap;html=1;boundedLbl=1;backgroundOutline=1;size=15;fontStyle=1" parent="1" vertex="1">
          <mxGeometry x="2373" y="500" width="177" height="80" as="geometry" />
        </mxCell>
        <mxCell id="FDHRYnm7bNjMq-bkD99A-238" style="edgeStyle=orthogonalEdgeStyle;rounded=0;orthogonalLoop=1;jettySize=auto;html=1;entryX=0.5;entryY=0;entryDx=0;entryDy=0;fontStyle=1" parent="1" source="FDHRYnm7bNjMq-bkD99A-94" target="FDHRYnm7bNjMq-bkD99A-104" edge="1">
          <mxGeometry relative="1" as="geometry" />
        </mxCell>
        <mxCell id="FDHRYnm7bNjMq-bkD99A-94" value="&lt;font style=&quot;font-size: 14px;&quot;&gt;APPLIED KNOWLEG&lt;/font&gt;" style="rounded=0;whiteSpace=wrap;html=1;fontStyle=1" parent="1" vertex="1">
          <mxGeometry x="3260" y="600" width="140" height="60" as="geometry" />
        </mxCell>
        <mxCell id="FDHRYnm7bNjMq-bkD99A-119" style="edgeStyle=orthogonalEdgeStyle;rounded=0;orthogonalLoop=1;jettySize=auto;html=1;exitX=0.5;exitY=0;exitDx=0;exitDy=0;entryX=0;entryY=0.5;entryDx=0;entryDy=0;fontStyle=1" parent="1" source="FDHRYnm7bNjMq-bkD99A-95" target="FDHRYnm7bNjMq-bkD99A-96" edge="1">
          <mxGeometry relative="1" as="geometry" />
        </mxCell>
        <mxCell id="FDHRYnm7bNjMq-bkD99A-95" value="&lt;font style=&quot;font-size: 14px;&quot;&gt;INPUT DATA SET&lt;/font&gt;" style="rounded=0;whiteSpace=wrap;html=1;fontStyle=1" parent="1" vertex="1">
          <mxGeometry x="2720" y="335" width="160" height="60" as="geometry" />
        </mxCell>
        <mxCell id="FDHRYnm7bNjMq-bkD99A-114" style="edgeStyle=orthogonalEdgeStyle;rounded=0;orthogonalLoop=1;jettySize=auto;html=1;entryX=0.5;entryY=0;entryDx=0;entryDy=0;fontStyle=1" parent="1" source="FDHRYnm7bNjMq-bkD99A-96" target="FDHRYnm7bNjMq-bkD99A-101" edge="1">
          <mxGeometry relative="1" as="geometry" />
        </mxCell>
        <mxCell id="FDHRYnm7bNjMq-bkD99A-96" value="&lt;font style=&quot;font-size: 14px;&quot;&gt;PRE-PROCESSING&lt;/font&gt;" style="rounded=0;whiteSpace=wrap;html=1;fontStyle=1" parent="1" vertex="1">
          <mxGeometry x="3070" y="120" width="140" height="60" as="geometry" />
        </mxCell>
        <mxCell id="FDHRYnm7bNjMq-bkD99A-111" style="edgeStyle=orthogonalEdgeStyle;rounded=0;orthogonalLoop=1;jettySize=auto;html=1;exitX=0.5;exitY=1;exitDx=0;exitDy=0;fontStyle=1" parent="1" source="FDHRYnm7bNjMq-bkD99A-97" target="FDHRYnm7bNjMq-bkD99A-94" edge="1">
          <mxGeometry relative="1" as="geometry">
            <Array as="points">
              <mxPoint x="3293" y="580" />
              <mxPoint x="3293" y="580" />
            </Array>
          </mxGeometry>
        </mxCell>
        <mxCell id="FDHRYnm7bNjMq-bkD99A-97" value="&lt;font style=&quot;font-size: 18px;&quot;&gt;TEST&lt;/font&gt;" style="rounded=0;whiteSpace=wrap;html=1;fontStyle=1" parent="1" vertex="1">
          <mxGeometry x="3223" y="460" width="140" height="60" as="geometry" />
        </mxCell>
        <mxCell id="FDHRYnm7bNjMq-bkD99A-108" style="edgeStyle=orthogonalEdgeStyle;rounded=0;orthogonalLoop=1;jettySize=auto;html=1;entryX=0.5;entryY=0;entryDx=0;entryDy=0;fontStyle=1" parent="1" source="FDHRYnm7bNjMq-bkD99A-98" target="FDHRYnm7bNjMq-bkD99A-99" edge="1">
          <mxGeometry relative="1" as="geometry" />
        </mxCell>
        <mxCell id="FDHRYnm7bNjMq-bkD99A-98" value="&lt;font style=&quot;font-size: 14px;&quot;&gt;TRAINING MODEL&lt;/font&gt;" style="rounded=0;whiteSpace=wrap;html=1;fontStyle=1" parent="1" vertex="1">
          <mxGeometry x="2920" y="460" width="140" height="60" as="geometry" />
        </mxCell>
        <mxCell id="FDHRYnm7bNjMq-bkD99A-107" style="edgeStyle=orthogonalEdgeStyle;rounded=0;orthogonalLoop=1;jettySize=auto;html=1;exitX=1;exitY=0.5;exitDx=0;exitDy=0;entryX=0;entryY=0.5;entryDx=0;entryDy=0;fontStyle=1" parent="1" source="FDHRYnm7bNjMq-bkD99A-99" target="FDHRYnm7bNjMq-bkD99A-94" edge="1">
          <mxGeometry relative="1" as="geometry" />
        </mxCell>
        <mxCell id="FDHRYnm7bNjMq-bkD99A-99" value="&lt;font style=&quot;font-size: 14px;&quot;&gt;CLASSIFICATION USING ALGORITHM&amp;nbsp;&lt;/font&gt;" style="rounded=0;whiteSpace=wrap;html=1;fontStyle=1" parent="1" vertex="1">
          <mxGeometry x="2920" y="600" width="140" height="60" as="geometry" />
        </mxCell>
        <mxCell id="FDHRYnm7bNjMq-bkD99A-109" style="edgeStyle=orthogonalEdgeStyle;rounded=0;orthogonalLoop=1;jettySize=auto;html=1;entryX=0.5;entryY=0;entryDx=0;entryDy=0;fontStyle=1" parent="1" source="FDHRYnm7bNjMq-bkD99A-100" target="FDHRYnm7bNjMq-bkD99A-98" edge="1">
          <mxGeometry relative="1" as="geometry">
            <Array as="points">
              <mxPoint x="3140" y="430" />
              <mxPoint x="2990" y="430" />
            </Array>
          </mxGeometry>
        </mxCell>
        <mxCell id="FDHRYnm7bNjMq-bkD99A-100" value="&lt;font style=&quot;font-size: 14px;&quot;&gt;SPITING&lt;/font&gt;" style="rounded=0;whiteSpace=wrap;html=1;fontStyle=1" parent="1" vertex="1">
          <mxGeometry x="3070" y="335" width="140" height="60" as="geometry" />
        </mxCell>
        <mxCell id="FDHRYnm7bNjMq-bkD99A-112" style="edgeStyle=orthogonalEdgeStyle;rounded=0;orthogonalLoop=1;jettySize=auto;html=1;entryX=0.5;entryY=0;entryDx=0;entryDy=0;fontStyle=1" parent="1" source="FDHRYnm7bNjMq-bkD99A-101" target="FDHRYnm7bNjMq-bkD99A-100" edge="1">
          <mxGeometry relative="1" as="geometry" />
        </mxCell>
        <mxCell id="FDHRYnm7bNjMq-bkD99A-101" value="&lt;font style=&quot;font-size: 14px;&quot;&gt;ANALYSING DATA&lt;/font&gt;" style="rounded=0;whiteSpace=wrap;html=1;fontStyle=1" parent="1" vertex="1">
          <mxGeometry x="3070" y="240" width="140" height="60" as="geometry" />
        </mxCell>
        <mxCell id="FDHRYnm7bNjMq-bkD99A-102" value="EMBED THE PICKEL FILE IN FLASK" style="rounded=0;whiteSpace=wrap;html=1;fontStyle=1" parent="1" vertex="1">
          <mxGeometry x="2660" y="730" width="140" height="60" as="geometry" />
        </mxCell>
        <mxCell id="FDHRYnm7bNjMq-bkD99A-105" style="edgeStyle=orthogonalEdgeStyle;rounded=0;orthogonalLoop=1;jettySize=auto;html=1;entryX=1;entryY=0.75;entryDx=0;entryDy=0;fontStyle=1" parent="1" source="FDHRYnm7bNjMq-bkD99A-103" target="FDHRYnm7bNjMq-bkD99A-102" edge="1">
          <mxGeometry relative="1" as="geometry">
            <Array as="points">
              <mxPoint x="2880" y="775" />
              <mxPoint x="2880" y="775" />
            </Array>
          </mxGeometry>
        </mxCell>
        <mxCell id="FDHRYnm7bNjMq-bkD99A-103" value="&lt;font style=&quot;font-size: 14px;&quot;&gt;BUILD A PICKLE FILE&amp;nbsp;&lt;/font&gt;" style="rounded=0;whiteSpace=wrap;html=1;fontStyle=1" parent="1" vertex="1">
          <mxGeometry x="2910" y="730" width="150" height="70" as="geometry" />
        </mxCell>
        <mxCell id="FDHRYnm7bNjMq-bkD99A-106" style="edgeStyle=orthogonalEdgeStyle;rounded=0;orthogonalLoop=1;jettySize=auto;html=1;exitX=0;exitY=0.25;exitDx=0;exitDy=0;entryX=1;entryY=0.5;entryDx=0;entryDy=0;fontStyle=1" parent="1" source="FDHRYnm7bNjMq-bkD99A-104" target="FDHRYnm7bNjMq-bkD99A-103" edge="1">
          <mxGeometry relative="1" as="geometry" />
        </mxCell>
        <mxCell id="FDHRYnm7bNjMq-bkD99A-104" value="&lt;font style=&quot;font-size: 14px;&quot;&gt;CHOOSING ACCURATE MODEL&lt;/font&gt;" style="rounded=0;whiteSpace=wrap;html=1;fontStyle=1" parent="1" vertex="1">
          <mxGeometry x="3260" y="750" width="140" height="60" as="geometry" />
        </mxCell>
        <mxCell id="FDHRYnm7bNjMq-bkD99A-110" style="edgeStyle=orthogonalEdgeStyle;rounded=0;orthogonalLoop=1;jettySize=auto;html=1;exitX=1;exitY=0.5;exitDx=0;exitDy=0;fontStyle=1" parent="1" target="FDHRYnm7bNjMq-bkD99A-97" edge="1">
          <mxGeometry relative="1" as="geometry">
            <mxPoint x="3140" y="395" as="sourcePoint" />
            <mxPoint x="3235.3199999999997" y="487.6400000000001" as="targetPoint" />
            <Array as="points">
              <mxPoint x="3140" y="430" />
              <mxPoint x="3235" y="430" />
            </Array>
          </mxGeometry>
        </mxCell>
        <mxCell id="FDHRYnm7bNjMq-bkD99A-113" style="edgeStyle=orthogonalEdgeStyle;rounded=0;orthogonalLoop=1;jettySize=auto;html=1;exitX=0.5;exitY=1;exitDx=0;exitDy=0;fontStyle=1" parent="1" source="FDHRYnm7bNjMq-bkD99A-100" target="FDHRYnm7bNjMq-bkD99A-100" edge="1">
          <mxGeometry relative="1" as="geometry" />
        </mxCell>
        <mxCell id="FDHRYnm7bNjMq-bkD99A-121" value="&lt;span&gt;ACTIVITY DIAGRAM&lt;/span&gt;" style="rounded=0;whiteSpace=wrap;html=1;fontStyle=1" parent="1" vertex="1">
          <mxGeometry x="1970" y="985" width="990" height="60" as="geometry" />
        </mxCell>
        <mxCell id="FDHRYnm7bNjMq-bkD99A-122" value="&lt;span&gt;&lt;font style=&quot;font-size: 24px;&quot;&gt;USE CASE DIAGRAM&amp;nbsp;&lt;/font&gt;&lt;/span&gt;" style="rounded=0;whiteSpace=wrap;html=1;fontStyle=1" parent="1" vertex="1">
          <mxGeometry x="1370" y="625" width="990" height="60" as="geometry" />
        </mxCell>
        <mxCell id="FDHRYnm7bNjMq-bkD99A-125" value="&lt;font style=&quot;font-size: 24px;&quot;&gt;SELECT DISEASE&lt;/font&gt;" style="ellipse;whiteSpace=wrap;html=1;fontStyle=1" parent="1" vertex="1">
          <mxGeometry x="1520" y="1000" width="160" height="80" as="geometry" />
        </mxCell>
        <mxCell id="FDHRYnm7bNjMq-bkD99A-127" value="&lt;font style=&quot;font-size: 18px;&quot;&gt;OPEN WEB APPLICATION&lt;/font&gt;" style="ellipse;whiteSpace=wrap;html=1;fontStyle=1" parent="1" vertex="1">
          <mxGeometry x="1520" y="890" width="160" height="80" as="geometry" />
        </mxCell>
        <mxCell id="FDHRYnm7bNjMq-bkD99A-132" value="&lt;font style=&quot;font-size: 18px;&quot;&gt;DISPLAY RESULT&lt;/font&gt;" style="ellipse;whiteSpace=wrap;html=1;fontStyle=1" parent="1" vertex="1">
          <mxGeometry x="1520" y="1830" width="160" height="80" as="geometry" />
        </mxCell>
        <mxCell id="FDHRYnm7bNjMq-bkD99A-133" value="&lt;font style=&quot;font-size: 18px;&quot;&gt;ACCURATE DISEASE PRECTION&lt;/font&gt;" style="ellipse;whiteSpace=wrap;html=1;fontStyle=1" parent="1" vertex="1">
          <mxGeometry x="1520" y="1700" width="160" height="80" as="geometry" />
        </mxCell>
        <mxCell id="FDHRYnm7bNjMq-bkD99A-134" value="&lt;font style=&quot;font-size: 18px;&quot;&gt;LOGISTIC REGRESSION&lt;/font&gt;" style="ellipse;whiteSpace=wrap;html=1;fontStyle=1" parent="1" vertex="1">
          <mxGeometry x="1520" y="1590" width="160" height="80" as="geometry" />
        </mxCell>
        <mxCell id="FDHRYnm7bNjMq-bkD99A-135" value="&lt;font style=&quot;font-size: 18px;&quot;&gt;FEATURE EXTRATION&lt;/font&gt;" style="ellipse;whiteSpace=wrap;html=1;fontStyle=1" parent="1" vertex="1">
          <mxGeometry x="1520" y="1474" width="160" height="80" as="geometry" />
        </mxCell>
        <mxCell id="FDHRYnm7bNjMq-bkD99A-136" value="&lt;font style=&quot;font-size: 18px;&quot;&gt;REUEST THE RESULT&lt;/font&gt;" style="ellipse;whiteSpace=wrap;html=1;fontStyle=1" parent="1" vertex="1">
          <mxGeometry x="1520" y="1360" width="160" height="80" as="geometry" />
        </mxCell>
        <mxCell id="FDHRYnm7bNjMq-bkD99A-137" value="&lt;font style=&quot;font-size: 18px;&quot;&gt;ANALYSIS OF INPUT DATA&lt;/font&gt;" style="ellipse;whiteSpace=wrap;html=1;fontStyle=1" parent="1" vertex="1">
          <mxGeometry x="1520" y="1240" width="160" height="80" as="geometry" />
        </mxCell>
        <mxCell id="FDHRYnm7bNjMq-bkD99A-138" value="&lt;font style=&quot;font-size: 14px;&quot;&gt;ENTER REQUIRED PARAMETERS&lt;/font&gt;" style="ellipse;whiteSpace=wrap;html=1;fontStyle=1" parent="1" vertex="1">
          <mxGeometry x="1520" y="1120" width="160" height="80" as="geometry" />
        </mxCell>
        <mxCell id="FDHRYnm7bNjMq-bkD99A-145" value="&lt;span&gt;&lt;font style=&quot;font-size: 24px;&quot;&gt;USER&amp;nbsp;&lt;/font&gt;&lt;/span&gt;" style="shape=umlActor;verticalLabelPosition=bottom;verticalAlign=top;html=1;outlineConnect=0;fontStyle=1" parent="1" vertex="1">
          <mxGeometry x="1110" y="1300" width="50" height="110" as="geometry" />
        </mxCell>
        <mxCell id="FDHRYnm7bNjMq-bkD99A-150" value="&lt;span&gt;&lt;font style=&quot;font-size: 24px;&quot;&gt;SERVER&lt;/font&gt;&lt;/span&gt;" style="shape=umlActor;verticalLabelPosition=bottom;verticalAlign=top;html=1;outlineConnect=0;fontStyle=1" parent="1" vertex="1">
          <mxGeometry x="2190" y="1300" width="50" height="110" as="geometry" />
        </mxCell>
        <mxCell id="FDHRYnm7bNjMq-bkD99A-154" value="" style="endArrow=classic;html=1;rounded=0;entryX=-0.004;entryY=0.629;entryDx=0;entryDy=0;entryPerimeter=0;fontStyle=1" parent="1" target="FDHRYnm7bNjMq-bkD99A-127" edge="1">
          <mxGeometry width="50" height="50" relative="1" as="geometry">
            <mxPoint x="1180" y="1340" as="sourcePoint" />
            <mxPoint x="1300" y="1240" as="targetPoint" />
          </mxGeometry>
        </mxCell>
        <mxCell id="FDHRYnm7bNjMq-bkD99A-155" value="" style="endArrow=classic;html=1;rounded=0;fontStyle=1" parent="1" edge="1">
          <mxGeometry width="50" height="50" relative="1" as="geometry">
            <mxPoint x="1170" y="1337.74" as="sourcePoint" />
            <mxPoint x="1552.6909069097574" y="1069.9961998342562" as="targetPoint" />
            <Array as="points" />
          </mxGeometry>
        </mxCell>
        <mxCell id="FDHRYnm7bNjMq-bkD99A-156" value="" style="endArrow=classic;html=1;rounded=0;fontStyle=1" parent="1" target="FDHRYnm7bNjMq-bkD99A-138" edge="1">
          <mxGeometry width="50" height="50" relative="1" as="geometry">
            <mxPoint x="1170" y="1340" as="sourcePoint" />
            <mxPoint x="1539" y="960" as="targetPoint" />
          </mxGeometry>
        </mxCell>
        <mxCell id="FDHRYnm7bNjMq-bkD99A-157" value="" style="endArrow=classic;html=1;rounded=0;entryX=0.031;entryY=0.239;entryDx=0;entryDy=0;entryPerimeter=0;fontStyle=1" parent="1" target="FDHRYnm7bNjMq-bkD99A-136" edge="1">
          <mxGeometry width="50" height="50" relative="1" as="geometry">
            <mxPoint x="1170" y="1340" as="sourcePoint" />
            <mxPoint x="1549" y="970" as="targetPoint" />
          </mxGeometry>
        </mxCell>
        <mxCell id="FDHRYnm7bNjMq-bkD99A-158" value="" style="endArrow=classic;html=1;rounded=0;entryX=0;entryY=0.5;entryDx=0;entryDy=0;fontStyle=1" parent="1" target="FDHRYnm7bNjMq-bkD99A-132" edge="1">
          <mxGeometry width="50" height="50" relative="1" as="geometry">
            <mxPoint x="1170" y="1330" as="sourcePoint" />
            <mxPoint x="1559" y="980" as="targetPoint" />
          </mxGeometry>
        </mxCell>
        <mxCell id="FDHRYnm7bNjMq-bkD99A-159" value="" style="endArrow=classic;html=1;rounded=0;exitX=0;exitY=0.3333333333333333;exitDx=0;exitDy=0;exitPerimeter=0;entryX=1;entryY=0.5;entryDx=0;entryDy=0;fontStyle=1" parent="1" source="FDHRYnm7bNjMq-bkD99A-150" target="FDHRYnm7bNjMq-bkD99A-137" edge="1">
          <mxGeometry width="50" height="50" relative="1" as="geometry">
            <mxPoint x="1870" y="1390" as="sourcePoint" />
            <mxPoint x="1920" y="1340" as="targetPoint" />
          </mxGeometry>
        </mxCell>
        <mxCell id="FDHRYnm7bNjMq-bkD99A-166" value="" style="endArrow=classic;html=1;rounded=0;exitX=0;exitY=0.3333333333333333;exitDx=0;exitDy=0;exitPerimeter=0;entryX=1;entryY=0.5;entryDx=0;entryDy=0;fontStyle=1" parent="1" source="FDHRYnm7bNjMq-bkD99A-150" target="FDHRYnm7bNjMq-bkD99A-135" edge="1">
          <mxGeometry width="50" height="50" relative="1" as="geometry">
            <mxPoint x="2260" y="1407" as="sourcePoint" />
            <mxPoint x="1750" y="1000" as="targetPoint" />
          </mxGeometry>
        </mxCell>
        <mxCell id="FDHRYnm7bNjMq-bkD99A-167" value="" style="endArrow=classic;html=1;rounded=0;entryX=1.025;entryY=0.37;entryDx=0;entryDy=0;entryPerimeter=0;fontStyle=1" parent="1" target="FDHRYnm7bNjMq-bkD99A-134" edge="1">
          <mxGeometry width="50" height="50" relative="1" as="geometry">
            <mxPoint x="2190" y="1340" as="sourcePoint" />
            <mxPoint x="1760" y="1010" as="targetPoint" />
          </mxGeometry>
        </mxCell>
        <mxCell id="FDHRYnm7bNjMq-bkD99A-168" value="" style="endArrow=classic;html=1;rounded=0;entryX=1.007;entryY=0.41;entryDx=0;entryDy=0;entryPerimeter=0;fontStyle=1" parent="1" target="FDHRYnm7bNjMq-bkD99A-133" edge="1">
          <mxGeometry width="50" height="50" relative="1" as="geometry">
            <mxPoint x="2180" y="1340" as="sourcePoint" />
            <mxPoint x="1770" y="1020" as="targetPoint" />
          </mxGeometry>
        </mxCell>
        <mxCell id="FDHRYnm7bNjMq-bkD99A-169" value="" style="endArrow=classic;html=1;rounded=0;entryX=1.019;entryY=0.364;entryDx=0;entryDy=0;entryPerimeter=0;fontStyle=1" parent="1" target="FDHRYnm7bNjMq-bkD99A-132" edge="1">
          <mxGeometry width="50" height="50" relative="1" as="geometry">
            <mxPoint x="2190" y="1340" as="sourcePoint" />
            <mxPoint x="1830" y="1680" as="targetPoint" />
          </mxGeometry>
        </mxCell>
        <mxCell id="FDHRYnm7bNjMq-bkD99A-170" value="" style="endArrow=none;html=1;rounded=0;entryX=0;entryY=0.3333333333333333;entryDx=0;entryDy=0;entryPerimeter=0;exitX=0.965;exitY=0.794;exitDx=0;exitDy=0;exitPerimeter=0;fontStyle=1" parent="1" source="FDHRYnm7bNjMq-bkD99A-127" target="FDHRYnm7bNjMq-bkD99A-150" edge="1">
          <mxGeometry width="50" height="50" relative="1" as="geometry">
            <mxPoint x="2100" y="1190" as="sourcePoint" />
            <mxPoint x="2150" y="1140" as="targetPoint" />
          </mxGeometry>
        </mxCell>
        <mxCell id="FDHRYnm7bNjMq-bkD99A-171" value="" style="endArrow=none;html=1;rounded=0;entryX=0;entryY=0.3333333333333333;entryDx=0;entryDy=0;entryPerimeter=0;exitX=1;exitY=0.5;exitDx=0;exitDy=0;fontStyle=1" parent="1" source="FDHRYnm7bNjMq-bkD99A-125" edge="1">
          <mxGeometry width="50" height="50" relative="1" as="geometry">
            <mxPoint x="1684" y="964" as="sourcePoint" />
            <mxPoint x="2200" y="1347" as="targetPoint" />
          </mxGeometry>
        </mxCell>
        <mxCell id="FDHRYnm7bNjMq-bkD99A-172" value="" style="endArrow=none;html=1;rounded=0;exitX=1;exitY=0.5;exitDx=0;exitDy=0;fontStyle=1" parent="1" source="FDHRYnm7bNjMq-bkD99A-138" edge="1">
          <mxGeometry width="50" height="50" relative="1" as="geometry">
            <mxPoint x="1694" y="974" as="sourcePoint" />
            <mxPoint x="2180" y="1340" as="targetPoint" />
          </mxGeometry>
        </mxCell>
        <mxCell id="FDHRYnm7bNjMq-bkD99A-177" value="" style="ellipse;html=1;shape=endState;fillColor=#000000;strokeColor=#ff0000;fontStyle=1" parent="1" vertex="1">
          <mxGeometry x="3303" y="2140" width="57" height="50" as="geometry" />
        </mxCell>
        <mxCell id="NjBpwdwdp16Q7vjj-qCS-23" style="edgeStyle=orthogonalEdgeStyle;rounded=0;orthogonalLoop=1;jettySize=auto;html=1;exitX=0.5;exitY=1;exitDx=0;exitDy=0;entryX=0.5;entryY=0;entryDx=0;entryDy=0;fontStyle=1" parent="1" source="FDHRYnm7bNjMq-bkD99A-183" target="FDHRYnm7bNjMq-bkD99A-191" edge="1">
          <mxGeometry relative="1" as="geometry" />
        </mxCell>
        <mxCell id="FDHRYnm7bNjMq-bkD99A-183" value="" style="ellipse;whiteSpace=wrap;html=1;fillColor=#000000;strokeColor=#ff0000;fontStyle=1" parent="1" vertex="1">
          <mxGeometry x="3293.5" y="916" width="45" height="44" as="geometry" />
        </mxCell>
        <mxCell id="FDHRYnm7bNjMq-bkD99A-190" value="" style="line;strokeWidth=2;html=1;fontStyle=1" parent="1" vertex="1">
          <mxGeometry x="3191.62" y="1570" width="250" height="90" as="geometry" />
        </mxCell>
        <mxCell id="FDHRYnm7bNjMq-bkD99A-203" style="edgeStyle=orthogonalEdgeStyle;rounded=0;orthogonalLoop=1;jettySize=auto;html=1;fontStyle=1" parent="1" source="FDHRYnm7bNjMq-bkD99A-191" target="FDHRYnm7bNjMq-bkD99A-192" edge="1">
          <mxGeometry relative="1" as="geometry">
            <Array as="points">
              <mxPoint x="3310" y="1150" />
              <mxPoint x="3310" y="1150" />
            </Array>
          </mxGeometry>
        </mxCell>
        <mxCell id="FDHRYnm7bNjMq-bkD99A-191" value="START" style="rounded=1;whiteSpace=wrap;html=1;fontStyle=1" parent="1" vertex="1">
          <mxGeometry x="3238.5" y="990" width="156.25" height="60" as="geometry" />
        </mxCell>
        <mxCell id="FDHRYnm7bNjMq-bkD99A-204" style="edgeStyle=orthogonalEdgeStyle;rounded=0;orthogonalLoop=1;jettySize=auto;html=1;entryX=0.5;entryY=0;entryDx=0;entryDy=0;fontStyle=1" parent="1" source="FDHRYnm7bNjMq-bkD99A-192" target="FDHRYnm7bNjMq-bkD99A-193" edge="1">
          <mxGeometry relative="1" as="geometry" />
        </mxCell>
        <mxCell id="FDHRYnm7bNjMq-bkD99A-192" value="DISPLAY DISEASES" style="rounded=1;whiteSpace=wrap;html=1;fontStyle=1" parent="1" vertex="1">
          <mxGeometry x="3262.5" y="1100" width="120" height="50" as="geometry" />
        </mxCell>
        <mxCell id="NjBpwdwdp16Q7vjj-qCS-6" style="edgeStyle=orthogonalEdgeStyle;rounded=0;orthogonalLoop=1;jettySize=auto;html=1;exitX=0.5;exitY=1;exitDx=0;exitDy=0;entryX=0.5;entryY=0;entryDx=0;entryDy=0;fontStyle=1" parent="1" source="FDHRYnm7bNjMq-bkD99A-193" target="NjBpwdwdp16Q7vjj-qCS-4" edge="1">
          <mxGeometry relative="1" as="geometry" />
        </mxCell>
        <mxCell id="FDHRYnm7bNjMq-bkD99A-193" value="SELECT DISEASE" style="rounded=1;whiteSpace=wrap;html=1;fontStyle=1" parent="1" vertex="1">
          <mxGeometry x="3262.5" y="1200" width="120" height="60" as="geometry" />
        </mxCell>
        <mxCell id="NjBpwdwdp16Q7vjj-qCS-19" style="edgeStyle=orthogonalEdgeStyle;rounded=0;orthogonalLoop=1;jettySize=auto;html=1;exitX=0.5;exitY=1;exitDx=0;exitDy=0;entryX=0.5;entryY=0;entryDx=0;entryDy=0;fontStyle=1" parent="1" source="FDHRYnm7bNjMq-bkD99A-194" target="FDHRYnm7bNjMq-bkD99A-195" edge="1">
          <mxGeometry relative="1" as="geometry" />
        </mxCell>
        <mxCell id="FDHRYnm7bNjMq-bkD99A-194" value="ML algorithm performing&amp;nbsp;" style="rounded=1;whiteSpace=wrap;html=1;fontStyle=1" parent="1" vertex="1">
          <mxGeometry x="3251" y="1800" width="133" height="60" as="geometry" />
        </mxCell>
        <mxCell id="FDHRYnm7bNjMq-bkD99A-195" value="MAKE PREDICTION" style="rounded=1;whiteSpace=wrap;html=1;fontStyle=1" parent="1" vertex="1">
          <mxGeometry x="3248.63" y="1910" width="136" height="60" as="geometry" />
        </mxCell>
        <mxCell id="FDHRYnm7bNjMq-bkD99A-196" value="train data set" style="rounded=1;whiteSpace=wrap;html=1;fontStyle=1" parent="1" vertex="1">
          <mxGeometry x="3000" y="1640" width="120" height="60" as="geometry" />
        </mxCell>
        <mxCell id="FDHRYnm7bNjMq-bkD99A-197" value="test data set" style="rounded=1;whiteSpace=wrap;html=1;fontStyle=1" parent="1" vertex="1">
          <mxGeometry x="3530" y="1650" width="120" height="60" as="geometry" />
        </mxCell>
        <mxCell id="FDHRYnm7bNjMq-bkD99A-199" value="" style="line;strokeWidth=2;html=1;fontStyle=1" parent="1" vertex="1">
          <mxGeometry x="3191" y="1700" width="250" height="76" as="geometry" />
        </mxCell>
        <mxCell id="NjBpwdwdp16Q7vjj-qCS-22" style="edgeStyle=orthogonalEdgeStyle;rounded=0;orthogonalLoop=1;jettySize=auto;html=1;exitX=0.5;exitY=1;exitDx=0;exitDy=0;fontStyle=1" parent="1" source="FDHRYnm7bNjMq-bkD99A-200" target="FDHRYnm7bNjMq-bkD99A-177" edge="1">
          <mxGeometry relative="1" as="geometry" />
        </mxCell>
        <mxCell id="FDHRYnm7bNjMq-bkD99A-200" value="DISPLAY PREDICTION RESULT" style="rounded=1;whiteSpace=wrap;html=1;fontStyle=1" parent="1" vertex="1">
          <mxGeometry x="3260" y="2020" width="143" height="60" as="geometry" />
        </mxCell>
        <mxCell id="FDHRYnm7bNjMq-bkD99A-206" value="" style="endArrow=classic;html=1;rounded=0;entryX=1;entryY=0.25;entryDx=0;entryDy=0;exitX=0.496;exitY=0.547;exitDx=0;exitDy=0;exitPerimeter=0;fontStyle=1" parent="1" source="FDHRYnm7bNjMq-bkD99A-190" target="FDHRYnm7bNjMq-bkD99A-196" edge="1">
          <mxGeometry width="50" height="50" relative="1" as="geometry">
            <mxPoint x="3160" y="1510" as="sourcePoint" />
            <mxPoint x="3210" y="1460" as="targetPoint" />
          </mxGeometry>
        </mxCell>
        <mxCell id="FDHRYnm7bNjMq-bkD99A-207" value="" style="endArrow=classic;html=1;rounded=0;exitX=0.535;exitY=0.527;exitDx=0;exitDy=0;exitPerimeter=0;fontStyle=1" parent="1" source="FDHRYnm7bNjMq-bkD99A-190" target="FDHRYnm7bNjMq-bkD99A-197" edge="1">
          <mxGeometry width="50" height="50" relative="1" as="geometry">
            <mxPoint x="3570" y="1460" as="sourcePoint" />
            <mxPoint x="3055" y="1509" as="targetPoint" />
          </mxGeometry>
        </mxCell>
        <mxCell id="FDHRYnm7bNjMq-bkD99A-208" value="" style="endArrow=classic;html=1;rounded=0;exitX=1;exitY=0.75;exitDx=0;exitDy=0;entryX=0.552;entryY=0.507;entryDx=0;entryDy=0;entryPerimeter=0;fontStyle=1" parent="1" source="FDHRYnm7bNjMq-bkD99A-196" target="FDHRYnm7bNjMq-bkD99A-199" edge="1">
          <mxGeometry width="50" height="50" relative="1" as="geometry">
            <mxPoint x="3293" y="1452" as="sourcePoint" />
            <mxPoint x="3170" y="1580" as="targetPoint" />
            <Array as="points" />
          </mxGeometry>
        </mxCell>
        <mxCell id="FDHRYnm7bNjMq-bkD99A-209" value="" style="endArrow=classic;html=1;rounded=0;exitX=0;exitY=0.75;exitDx=0;exitDy=0;entryX=0.559;entryY=0.488;entryDx=0;entryDy=0;entryPerimeter=0;fontStyle=1" parent="1" source="FDHRYnm7bNjMq-bkD99A-197" target="FDHRYnm7bNjMq-bkD99A-199" edge="1">
          <mxGeometry width="50" height="50" relative="1" as="geometry">
            <mxPoint x="3055" y="1539" as="sourcePoint" />
            <mxPoint x="3321" y="1600" as="targetPoint" />
            <Array as="points" />
          </mxGeometry>
        </mxCell>
        <mxCell id="FDHRYnm7bNjMq-bkD99A-210" value="" style="endArrow=classic;html=1;rounded=0;entryX=0.5;entryY=0;entryDx=0;entryDy=0;fontStyle=1" parent="1" target="FDHRYnm7bNjMq-bkD99A-194" edge="1">
          <mxGeometry width="50" height="50" relative="1" as="geometry">
            <mxPoint x="3318" y="1730" as="sourcePoint" />
            <mxPoint x="3440" y="1630" as="targetPoint" />
          </mxGeometry>
        </mxCell>
        <mxCell id="FDHRYnm7bNjMq-bkD99A-215" value="&lt;span&gt;&lt;font style=&quot;font-size: 36px;&quot;&gt;STATE&amp;nbsp; DIAGRAM&amp;nbsp;&lt;/font&gt;&lt;/span&gt;" style="rounded=0;whiteSpace=wrap;html=1;fontStyle=1" parent="1" vertex="1">
          <mxGeometry x="3600" y="60" width="990" height="60" as="geometry" />
        </mxCell>
        <mxCell id="1KtNDEGm-tQm5sGcbX1P-34" style="edgeStyle=orthogonalEdgeStyle;rounded=0;orthogonalLoop=1;jettySize=auto;html=1;exitX=0.5;exitY=1;exitDx=0;exitDy=0;" parent="1" source="FDHRYnm7bNjMq-bkD99A-217" target="FDHRYnm7bNjMq-bkD99A-220" edge="1">
          <mxGeometry relative="1" as="geometry" />
        </mxCell>
        <mxCell id="FDHRYnm7bNjMq-bkD99A-217" value="&lt;font style=&quot;font-size: 24px;&quot;&gt;&amp;nbsp;START&lt;/font&gt;" style="ellipse;whiteSpace=wrap;html=1;fontStyle=1;fontSize=14;" parent="1" vertex="1">
          <mxGeometry x="4030" y="150" width="180" height="80" as="geometry" />
        </mxCell>
        <mxCell id="FDHRYnm7bNjMq-bkD99A-218" value="&lt;font style=&quot;font-size: 24px;&quot;&gt;END&lt;/font&gt;" style="ellipse;whiteSpace=wrap;html=1;fontStyle=1;fontSize=14;" parent="1" vertex="1">
          <mxGeometry x="4030" y="1370" width="180" height="80" as="geometry" />
        </mxCell>
        <mxCell id="FDHRYnm7bNjMq-bkD99A-231" style="edgeStyle=orthogonalEdgeStyle;rounded=0;orthogonalLoop=1;jettySize=auto;html=1;exitX=0.5;exitY=1;exitDx=0;exitDy=0;entryX=0.5;entryY=0;entryDx=0;entryDy=0;fontStyle=1;fontSize=14;" parent="1" source="FDHRYnm7bNjMq-bkD99A-220" target="FDHRYnm7bNjMq-bkD99A-221" edge="1">
          <mxGeometry relative="1" as="geometry" />
        </mxCell>
        <mxCell id="FDHRYnm7bNjMq-bkD99A-220" value="&lt;font style=&quot;&quot;&gt;&lt;font style=&quot;font-size: 24px;&quot;&gt;&lt;br&gt;[Initial State]&lt;/font&gt;&lt;br&gt;&lt;/font&gt;" style="rounded=1;whiteSpace=wrap;html=1;fontStyle=1;fontSize=14;" parent="1" vertex="1">
          <mxGeometry x="3990" y="280" width="260" height="60" as="geometry" />
        </mxCell>
        <mxCell id="FDHRYnm7bNjMq-bkD99A-221" value="&lt;font style=&quot;font-size: 18px;&quot;&gt;Waiting for User to Start&lt;/font&gt;" style="rounded=1;whiteSpace=wrap;html=1;fontStyle=1;fontSize=14;" parent="1" vertex="1">
          <mxGeometry x="3992" y="395" width="260" height="60" as="geometry" />
        </mxCell>
        <mxCell id="NjBpwdwdp16Q7vjj-qCS-27" style="edgeStyle=orthogonalEdgeStyle;rounded=0;orthogonalLoop=1;jettySize=auto;html=1;entryX=0.5;entryY=0;entryDx=0;entryDy=0;fontStyle=1;fontSize=14;" parent="1" source="FDHRYnm7bNjMq-bkD99A-224" target="FDHRYnm7bNjMq-bkD99A-225" edge="1">
          <mxGeometry relative="1" as="geometry" />
        </mxCell>
        <mxCell id="FDHRYnm7bNjMq-bkD99A-224" value="&lt;font style=&quot;font-size: 24px;&quot;&gt;Prompt for User Input&lt;/font&gt;" style="rounded=1;whiteSpace=wrap;html=1;fontStyle=1;fontSize=14;" parent="1" vertex="1">
          <mxGeometry x="3990" y="760" width="260" height="60" as="geometry" />
        </mxCell>
        <mxCell id="NjBpwdwdp16Q7vjj-qCS-31" style="edgeStyle=orthogonalEdgeStyle;rounded=0;orthogonalLoop=1;jettySize=auto;html=1;entryX=0.5;entryY=0;entryDx=0;entryDy=0;fontStyle=1;fontSize=14;" parent="1" source="FDHRYnm7bNjMq-bkD99A-225" target="NjBpwdwdp16Q7vjj-qCS-28" edge="1">
          <mxGeometry relative="1" as="geometry" />
        </mxCell>
        <mxCell id="FDHRYnm7bNjMq-bkD99A-225" value="&lt;font style=&quot;font-size: 24px;&quot;&gt;&amp;nbsp;Collecting Input&lt;/font&gt;" style="rounded=1;whiteSpace=wrap;html=1;fontStyle=1;fontSize=14;" parent="1" vertex="1">
          <mxGeometry x="3990" y="890" width="260" height="60" as="geometry" />
        </mxCell>
        <mxCell id="FDHRYnm7bNjMq-bkD99A-227" value="&lt;font style=&quot;font-size: 24px;&quot;&gt;Display Diseases&lt;/font&gt;" style="rounded=1;whiteSpace=wrap;html=1;fontStyle=1;fontSize=14;" parent="1" vertex="1">
          <mxGeometry x="3982" y="520" width="260" height="60" as="geometry" />
        </mxCell>
        <mxCell id="FDHRYnm7bNjMq-bkD99A-235" style="edgeStyle=orthogonalEdgeStyle;rounded=0;orthogonalLoop=1;jettySize=auto;html=1;exitX=0.5;exitY=1;exitDx=0;exitDy=0;entryX=0.5;entryY=0;entryDx=0;entryDy=0;fontStyle=1;fontSize=14;" parent="1" source="FDHRYnm7bNjMq-bkD99A-228" target="FDHRYnm7bNjMq-bkD99A-224" edge="1">
          <mxGeometry relative="1" as="geometry" />
        </mxCell>
        <mxCell id="FDHRYnm7bNjMq-bkD99A-228" value="&lt;font style=&quot;font-size: 24px;&quot;&gt;&amp;nbsp;Disease Selecte&lt;/font&gt;" style="rounded=1;whiteSpace=wrap;html=1;fontStyle=1;fontSize=14;" parent="1" vertex="1">
          <mxGeometry x="3990" y="630" width="260" height="60" as="geometry" />
        </mxCell>
        <mxCell id="FDHRYnm7bNjMq-bkD99A-229" style="edgeStyle=orthogonalEdgeStyle;rounded=0;orthogonalLoop=1;jettySize=auto;html=1;exitX=0.5;exitY=1;exitDx=0;exitDy=0;fontStyle=1;fontSize=14;" parent="1" source="FDHRYnm7bNjMq-bkD99A-227" target="FDHRYnm7bNjMq-bkD99A-227" edge="1">
          <mxGeometry relative="1" as="geometry" />
        </mxCell>
        <mxCell id="FDHRYnm7bNjMq-bkD99A-232" style="edgeStyle=orthogonalEdgeStyle;rounded=0;orthogonalLoop=1;jettySize=auto;html=1;exitX=0.5;exitY=1;exitDx=0;exitDy=0;entryX=0.535;entryY=-0.057;entryDx=0;entryDy=0;entryPerimeter=0;fontStyle=1;fontSize=14;" parent="1" source="FDHRYnm7bNjMq-bkD99A-221" target="FDHRYnm7bNjMq-bkD99A-227" edge="1">
          <mxGeometry relative="1" as="geometry" />
        </mxCell>
        <mxCell id="FDHRYnm7bNjMq-bkD99A-234" style="edgeStyle=orthogonalEdgeStyle;rounded=0;orthogonalLoop=1;jettySize=auto;html=1;exitX=0.5;exitY=1;exitDx=0;exitDy=0;entryX=0.467;entryY=0.167;entryDx=0;entryDy=0;entryPerimeter=0;fontStyle=1;fontSize=14;" parent="1" source="FDHRYnm7bNjMq-bkD99A-227" target="FDHRYnm7bNjMq-bkD99A-228" edge="1">
          <mxGeometry relative="1" as="geometry" />
        </mxCell>
        <mxCell id="NjBpwdwdp16Q7vjj-qCS-14" value="" style="edgeStyle=orthogonalEdgeStyle;rounded=0;orthogonalLoop=1;jettySize=auto;html=1;fontStyle=1" parent="1" source="NjBpwdwdp16Q7vjj-qCS-3" target="NjBpwdwdp16Q7vjj-qCS-12" edge="1">
          <mxGeometry relative="1" as="geometry" />
        </mxCell>
        <mxCell id="NjBpwdwdp16Q7vjj-qCS-3" value="USER ENTER VALUES" style="rounded=1;whiteSpace=wrap;html=1;fontStyle=1" parent="1" vertex="1">
          <mxGeometry x="3251" y="1410" width="143" height="60" as="geometry" />
        </mxCell>
        <mxCell id="NjBpwdwdp16Q7vjj-qCS-13" style="edgeStyle=orthogonalEdgeStyle;rounded=0;orthogonalLoop=1;jettySize=auto;html=1;fontStyle=1" parent="1" source="NjBpwdwdp16Q7vjj-qCS-4" target="NjBpwdwdp16Q7vjj-qCS-3" edge="1">
          <mxGeometry relative="1" as="geometry" />
        </mxCell>
        <mxCell id="NjBpwdwdp16Q7vjj-qCS-4" value="PROMPT FOR USER INPUT" style="rounded=1;whiteSpace=wrap;html=1;fontStyle=1" parent="1" vertex="1">
          <mxGeometry x="3251.75" y="1310" width="143" height="60" as="geometry" />
        </mxCell>
        <mxCell id="NjBpwdwdp16Q7vjj-qCS-12" value="COLLECT INPUT VALUES" style="rounded=1;whiteSpace=wrap;html=1;fontStyle=1" parent="1" vertex="1">
          <mxGeometry x="3257" y="1510" width="131" height="60" as="geometry" />
        </mxCell>
        <mxCell id="NjBpwdwdp16Q7vjj-qCS-15" style="edgeStyle=orthogonalEdgeStyle;rounded=0;orthogonalLoop=1;jettySize=auto;html=1;exitX=0.5;exitY=1;exitDx=0;exitDy=0;entryX=0.526;entryY=0.565;entryDx=0;entryDy=0;entryPerimeter=0;fontStyle=1" parent="1" source="NjBpwdwdp16Q7vjj-qCS-12" target="FDHRYnm7bNjMq-bkD99A-190" edge="1">
          <mxGeometry relative="1" as="geometry" />
        </mxCell>
        <mxCell id="NjBpwdwdp16Q7vjj-qCS-21" style="edgeStyle=orthogonalEdgeStyle;rounded=0;orthogonalLoop=1;jettySize=auto;html=1;exitX=0.5;exitY=1;exitDx=0;exitDy=0;entryX=0.397;entryY=-0.005;entryDx=0;entryDy=0;entryPerimeter=0;fontStyle=1" parent="1" source="FDHRYnm7bNjMq-bkD99A-195" target="FDHRYnm7bNjMq-bkD99A-200" edge="1">
          <mxGeometry relative="1" as="geometry" />
        </mxCell>
        <mxCell id="NjBpwdwdp16Q7vjj-qCS-32" style="edgeStyle=orthogonalEdgeStyle;rounded=0;orthogonalLoop=1;jettySize=auto;html=1;entryX=0.5;entryY=0;entryDx=0;entryDy=0;fontStyle=1;fontSize=14;" parent="1" source="NjBpwdwdp16Q7vjj-qCS-28" target="NjBpwdwdp16Q7vjj-qCS-29" edge="1">
          <mxGeometry relative="1" as="geometry" />
        </mxCell>
        <mxCell id="NjBpwdwdp16Q7vjj-qCS-28" value="&lt;font style=&quot;font-size: 24px;&quot;&gt;Predicting Disease&lt;/font&gt;" style="rounded=1;whiteSpace=wrap;html=1;fontStyle=1;fontSize=14;" parent="1" vertex="1">
          <mxGeometry x="3990" y="1020" width="260" height="60" as="geometry" />
        </mxCell>
        <mxCell id="NjBpwdwdp16Q7vjj-qCS-33" style="edgeStyle=orthogonalEdgeStyle;rounded=0;orthogonalLoop=1;jettySize=auto;html=1;exitX=0.5;exitY=1;exitDx=0;exitDy=0;entryX=0.5;entryY=0;entryDx=0;entryDy=0;fontStyle=1;fontSize=14;" parent="1" source="NjBpwdwdp16Q7vjj-qCS-29" target="NjBpwdwdp16Q7vjj-qCS-30" edge="1">
          <mxGeometry relative="1" as="geometry" />
        </mxCell>
        <mxCell id="NjBpwdwdp16Q7vjj-qCS-29" value="&lt;font style=&quot;font-size: 24px;&quot;&gt;Displaying Result&lt;/font&gt;" style="rounded=1;whiteSpace=wrap;html=1;fontStyle=1;fontSize=14;" parent="1" vertex="1">
          <mxGeometry x="3992" y="1130" width="260" height="60" as="geometry" />
        </mxCell>
        <mxCell id="NjBpwdwdp16Q7vjj-qCS-34" style="edgeStyle=orthogonalEdgeStyle;rounded=0;orthogonalLoop=1;jettySize=auto;html=1;exitX=0.5;exitY=1;exitDx=0;exitDy=0;entryX=0.5;entryY=0;entryDx=0;entryDy=0;fontStyle=1;fontSize=14;" parent="1" source="NjBpwdwdp16Q7vjj-qCS-30" target="FDHRYnm7bNjMq-bkD99A-218" edge="1">
          <mxGeometry relative="1" as="geometry" />
        </mxCell>
        <mxCell id="1KtNDEGm-tQm5sGcbX1P-33" value="" style="edgeStyle=orthogonalEdgeStyle;rounded=0;orthogonalLoop=1;jettySize=auto;html=1;fontSize=14;" parent="1" source="NjBpwdwdp16Q7vjj-qCS-30" target="FDHRYnm7bNjMq-bkD99A-218" edge="1">
          <mxGeometry relative="1" as="geometry" />
        </mxCell>
        <mxCell id="NjBpwdwdp16Q7vjj-qCS-30" value="&lt;font style=&quot;font-size: 24px;&quot;&gt;[Final State]&lt;/font&gt;" style="rounded=1;whiteSpace=wrap;html=1;fontStyle=1;fontSize=14;" parent="1" vertex="1">
          <mxGeometry x="3992" y="1240" width="260" height="60" as="geometry" />
        </mxCell>
        <mxCell id="NjBpwdwdp16Q7vjj-qCS-35" value="&lt;u&gt;&lt;font style=&quot;font-size: 18px;&quot;&gt;DATA FLOW DIAGRAM -&amp;nbsp; ZERO LEVEL&amp;nbsp;&lt;/font&gt;&lt;/u&gt;" style="rounded=0;whiteSpace=wrap;html=1;fontStyle=1" parent="1" vertex="1">
          <mxGeometry x="4850" y="335" width="990" height="60" as="geometry" />
        </mxCell>
        <mxCell id="NjBpwdwdp16Q7vjj-qCS-36" value="&lt;font style=&quot;font-size: 18px;&quot;&gt;&amp;nbsp;Disease Prediction System&lt;/font&gt;" style="ellipse;whiteSpace=wrap;html=1;aspect=fixed;fontStyle=1" parent="1" vertex="1">
          <mxGeometry x="5210" y="420" width="200" height="200" as="geometry" />
        </mxCell>
        <mxCell id="NjBpwdwdp16Q7vjj-qCS-37" value="&lt;font style=&quot;font-size: 24px;&quot;&gt;User&amp;nbsp;&amp;nbsp;&lt;/font&gt;" style="rounded=0;whiteSpace=wrap;html=1;fontStyle=1" parent="1" vertex="1">
          <mxGeometry x="4770" y="465" width="210" height="170" as="geometry" />
        </mxCell>
        <mxCell id="NjBpwdwdp16Q7vjj-qCS-38" value="&lt;font style=&quot;font-size: 18px;&quot;&gt;Prediction Model&amp;nbsp;&lt;/font&gt;" style="rounded=0;whiteSpace=wrap;html=1;fontStyle=1" parent="1" vertex="1">
          <mxGeometry x="5640" y="470" width="180" height="110" as="geometry" />
        </mxCell>
        <mxCell id="NjBpwdwdp16Q7vjj-qCS-39" value="" style="endArrow=classic;html=1;rounded=0;entryX=0.016;entryY=0.308;entryDx=0;entryDy=0;entryPerimeter=0;exitX=1.018;exitY=0.066;exitDx=0;exitDy=0;exitPerimeter=0;fontStyle=1" parent="1" source="NjBpwdwdp16Q7vjj-qCS-37" target="NjBpwdwdp16Q7vjj-qCS-36" edge="1">
          <mxGeometry width="50" height="50" relative="1" as="geometry">
            <mxPoint x="5010" y="490" as="sourcePoint" />
            <mxPoint x="5210.38" y="479.9999999999999" as="targetPoint" />
          </mxGeometry>
        </mxCell>
        <mxCell id="NjBpwdwdp16Q7vjj-qCS-40" value="&lt;font style=&quot;font-size: 18px;&quot;&gt;1.&amp;nbsp; Select Disease request&lt;/font&gt;" style="text;html=1;align=center;verticalAlign=middle;resizable=0;points=[];autosize=1;strokeColor=none;fillColor=none;fontStyle=1" parent="1" vertex="1">
          <mxGeometry x="4980" y="445" width="230" height="40" as="geometry" />
        </mxCell>
        <mxCell id="NjBpwdwdp16Q7vjj-qCS-42" value="" style="endArrow=classic;html=1;rounded=0;entryX=0;entryY=0.5;entryDx=0;entryDy=0;exitX=1;exitY=0.25;exitDx=0;exitDy=0;fontStyle=1" parent="1" edge="1">
          <mxGeometry width="50" height="50" relative="1" as="geometry">
            <mxPoint x="5405" y="478.46" as="sourcePoint" />
            <mxPoint x="5645" y="479.46" as="targetPoint" />
          </mxGeometry>
        </mxCell>
        <mxCell id="NjBpwdwdp16Q7vjj-qCS-43" value="" style="endArrow=classic;html=1;rounded=0;exitX=0;exitY=0.5;exitDx=0;exitDy=0;entryX=0.992;entryY=0.324;entryDx=0;entryDy=0;entryPerimeter=0;fontStyle=1" parent="1" source="NjBpwdwdp16Q7vjj-qCS-36" target="NjBpwdwdp16Q7vjj-qCS-37" edge="1">
          <mxGeometry width="50" height="50" relative="1" as="geometry">
            <mxPoint x="5209" y="520" as="sourcePoint" />
            <mxPoint x="5004" y="530" as="targetPoint" />
          </mxGeometry>
        </mxCell>
        <mxCell id="NjBpwdwdp16Q7vjj-qCS-46" value="&lt;font style=&quot;font-size: 18px;&quot;&gt;&lt;span style=&quot;&quot; class=&quot;hljs-number&quot;&gt;6.&lt;/span&gt; Display &lt;span style=&quot;&quot; class=&quot;hljs-keyword&quot;&gt;Result&lt;/span&gt; Response&lt;/font&gt;" style="text;html=1;align=center;verticalAlign=middle;resizable=0;points=[];autosize=1;strokeColor=none;fillColor=none;fontStyle=1" parent="1" vertex="1">
          <mxGeometry x="4985" y="585" width="240" height="40" as="geometry" />
        </mxCell>
        <mxCell id="NjBpwdwdp16Q7vjj-qCS-47" value="&lt;font style=&quot;font-size: 14px;&quot;&gt;&lt;span style=&quot;&quot; class=&quot;hljs-number&quot;&gt;2.&lt;/span&gt; Display Diseases Response&lt;/font&gt;" style="text;html=1;align=center;verticalAlign=middle;resizable=0;points=[];autosize=1;strokeColor=none;fillColor=none;fontStyle=1" parent="1" vertex="1">
          <mxGeometry x="4990" y="488" width="210" height="30" as="geometry" />
        </mxCell>
        <mxCell id="NjBpwdwdp16Q7vjj-qCS-48" value="&lt;font style=&quot;font-size: 18px;&quot;&gt;&lt;span style=&quot;&quot; class=&quot;hljs-number&quot;&gt;3.&lt;/span&gt; Input Symptoms Request&lt;/font&gt;" style="text;html=1;align=center;verticalAlign=middle;resizable=0;points=[];autosize=1;strokeColor=none;fillColor=none;fontStyle=1" parent="1" vertex="1">
          <mxGeometry x="4970" y="528" width="250" height="40" as="geometry" />
        </mxCell>
        <mxCell id="NjBpwdwdp16Q7vjj-qCS-49" value="&lt;span&gt;&lt;font style=&quot;font-size: 18px;&quot;&gt;&lt;span style=&quot;&quot; class=&quot;hljs-number&quot;&gt;4.&lt;/span&gt; Forward Symptoms Request&lt;/font&gt;&lt;/span&gt;" style="text;html=1;align=center;verticalAlign=middle;resizable=0;points=[];autosize=1;strokeColor=none;fillColor=none;fontStyle=1" parent="1" vertex="1">
          <mxGeometry x="5390" y="440" width="270" height="40" as="geometry" />
        </mxCell>
        <mxCell id="NjBpwdwdp16Q7vjj-qCS-50" value="&lt;span&gt;&lt;font style=&quot;font-size: 14px;&quot;&gt;&lt;span class=&quot;hljs-number&quot;&gt;5.&lt;/span&gt; Predicted Disease Response&lt;/font&gt;&lt;/span&gt;" style="text;whiteSpace=wrap;html=1;fontStyle=1" parent="1" vertex="1">
          <mxGeometry x="5435" y="560" width="200" height="40" as="geometry" />
        </mxCell>
        <mxCell id="NjBpwdwdp16Q7vjj-qCS-51" value="" style="endArrow=classic;html=1;rounded=0;exitX=0.354;exitY=0.984;exitDx=0;exitDy=0;exitPerimeter=0;entryX=0.996;entryY=0.94;entryDx=0;entryDy=0;entryPerimeter=0;fontStyle=1" parent="1" source="NjBpwdwdp16Q7vjj-qCS-36" target="NjBpwdwdp16Q7vjj-qCS-37" edge="1">
          <mxGeometry width="50" height="50" relative="1" as="geometry">
            <mxPoint x="5210" y="700" as="sourcePoint" />
            <mxPoint x="4980" y="569" as="targetPoint" />
            <Array as="points" />
          </mxGeometry>
        </mxCell>
        <mxCell id="NjBpwdwdp16Q7vjj-qCS-52" value="" style="endArrow=classic;html=1;rounded=0;exitX=0;exitY=0.75;exitDx=0;exitDy=0;fontStyle=1" parent="1" source="NjBpwdwdp16Q7vjj-qCS-38" edge="1">
          <mxGeometry width="50" height="50" relative="1" as="geometry">
            <mxPoint x="5630" y="515" as="sourcePoint" />
            <mxPoint x="5400" y="553" as="targetPoint" />
            <Array as="points" />
          </mxGeometry>
        </mxCell>
        <mxCell id="NjBpwdwdp16Q7vjj-qCS-53" value="&lt;span&gt;&lt;font style=&quot;font-size: 18px;&quot;&gt;Prompt for Input&lt;/font&gt;&lt;/span&gt;" style="text;html=1;align=center;verticalAlign=middle;resizable=0;points=[];autosize=1;strokeColor=none;fillColor=none;fontStyle=1" parent="1" vertex="1">
          <mxGeometry x="5450" y="488" width="150" height="40" as="geometry" />
        </mxCell>
        <mxCell id="NjBpwdwdp16Q7vjj-qCS-54" value="" style="endArrow=classic;html=1;rounded=0;exitX=1;exitY=0.5;exitDx=0;exitDy=0;entryX=0;entryY=0.5;entryDx=0;entryDy=0;fontStyle=1" parent="1" source="NjBpwdwdp16Q7vjj-qCS-36" target="NjBpwdwdp16Q7vjj-qCS-38" edge="1">
          <mxGeometry width="50" height="50" relative="1" as="geometry">
            <mxPoint x="5360" y="850" as="sourcePoint" />
            <mxPoint x="5410" y="800" as="targetPoint" />
          </mxGeometry>
        </mxCell>
        <mxCell id="NjBpwdwdp16Q7vjj-qCS-55" value="" style="endArrow=classic;html=1;rounded=0;exitX=1.016;exitY=0.618;exitDx=0;exitDy=0;exitPerimeter=0;entryX=0.056;entryY=0.764;entryDx=0;entryDy=0;entryPerimeter=0;fontStyle=1" parent="1" source="NjBpwdwdp16Q7vjj-qCS-37" target="NjBpwdwdp16Q7vjj-qCS-36" edge="1">
          <mxGeometry width="50" height="50" relative="1" as="geometry">
            <mxPoint x="5110" y="830" as="sourcePoint" />
            <mxPoint x="5160" y="780" as="targetPoint" />
          </mxGeometry>
        </mxCell>
        <mxCell id="NjBpwdwdp16Q7vjj-qCS-56" value="&lt;span&gt;&lt;u&gt;&lt;span&gt;&lt;font style=&quot;font-size: 18px;&quot;&gt;DATA FLOW DIAGRAM -&amp;nbsp; FIRST LEVEL&lt;/font&gt;&lt;/span&gt;&lt;/u&gt;&lt;/span&gt;" style="rounded=0;whiteSpace=wrap;html=1;fontStyle=1" parent="1" vertex="1">
          <mxGeometry x="5830" y="800" width="990" height="60" as="geometry" />
        </mxCell>
        <mxCell id="NjBpwdwdp16Q7vjj-qCS-73" style="edgeStyle=orthogonalEdgeStyle;rounded=0;orthogonalLoop=1;jettySize=auto;html=1;entryX=0.091;entryY=0.201;entryDx=0;entryDy=0;entryPerimeter=0;fontStyle=1" parent="1" source="NjBpwdwdp16Q7vjj-qCS-57" target="NjBpwdwdp16Q7vjj-qCS-106" edge="1">
          <mxGeometry relative="1" as="geometry">
            <mxPoint x="4919.92" y="1475.344" as="targetPoint" />
            <Array as="points">
              <mxPoint x="4700" y="1168" />
              <mxPoint x="4700" y="1320" />
              <mxPoint x="4702" y="1320" />
            </Array>
          </mxGeometry>
        </mxCell>
        <mxCell id="NjBpwdwdp16Q7vjj-qCS-57" value="&lt;span&gt;&lt;font style=&quot;font-size: 18px;&quot;&gt;0.0 USER&lt;/font&gt;&lt;/span&gt;" style="rounded=0;whiteSpace=wrap;html=1;fontStyle=1" parent="1" vertex="1">
          <mxGeometry x="4800" y="1110" width="230" height="100" as="geometry" />
        </mxCell>
        <mxCell id="NjBpwdwdp16Q7vjj-qCS-64" style="edgeStyle=orthogonalEdgeStyle;rounded=0;orthogonalLoop=1;jettySize=auto;html=1;entryX=1;entryY=0.5;entryDx=0;entryDy=0;fontStyle=1" parent="1" source="NjBpwdwdp16Q7vjj-qCS-58" target="NjBpwdwdp16Q7vjj-qCS-57" edge="1">
          <mxGeometry relative="1" as="geometry">
            <mxPoint x="5166.000000000001" y="1160" as="targetPoint" />
            <Array as="points">
              <mxPoint x="5212" y="1170" />
              <mxPoint x="5212" y="1168" />
            </Array>
          </mxGeometry>
        </mxCell>
        <mxCell id="NjBpwdwdp16Q7vjj-qCS-58" value="&lt;span&gt;&lt;font style=&quot;font-size: 18px;&quot;&gt;SELECT DISEASE (1.1)&lt;/font&gt;&lt;/span&gt;" style="ellipse;whiteSpace=wrap;html=1;aspect=fixed;fontStyle=1" parent="1" vertex="1">
          <mxGeometry x="5373" y="1080" width="176" height="176" as="geometry" />
        </mxCell>
        <mxCell id="NjBpwdwdp16Q7vjj-qCS-59" style="edgeStyle=orthogonalEdgeStyle;rounded=0;orthogonalLoop=1;jettySize=auto;html=1;exitX=1;exitY=0.25;exitDx=0;exitDy=0;entryX=0.047;entryY=0.361;entryDx=0;entryDy=0;entryPerimeter=0;fontStyle=1" parent="1" source="NjBpwdwdp16Q7vjj-qCS-57" target="NjBpwdwdp16Q7vjj-qCS-58" edge="1">
          <mxGeometry relative="1" as="geometry" />
        </mxCell>
        <mxCell id="NjBpwdwdp16Q7vjj-qCS-60" value="&lt;span&gt;&lt;font style=&quot;font-size: 18px;&quot;&gt;&lt;span class=&quot;hljs-number&quot;&gt;1.1&lt;/span&gt; &lt;span class=&quot;hljs-keyword&quot;&gt;Select&lt;/span&gt; Disease Request&lt;/font&gt;&lt;/span&gt;" style="text;whiteSpace=wrap;html=1;fontStyle=1" parent="1" vertex="1">
          <mxGeometry x="5110" y="1090" width="180" height="40" as="geometry" />
        </mxCell>
        <mxCell id="NjBpwdwdp16Q7vjj-qCS-66" value="&lt;span&gt;&lt;font style=&quot;font-size: 18px;&quot;&gt;&lt;span class=&quot;hljs-number&quot;&gt;1.2&lt;/span&gt; Display Diseases Response&lt;/font&gt;&lt;/span&gt;" style="text;whiteSpace=wrap;html=1;fontStyle=1" parent="1" vertex="1">
          <mxGeometry x="5150" y="1200" width="200" height="40" as="geometry" />
        </mxCell>
        <mxCell id="NjBpwdwdp16Q7vjj-qCS-103" style="edgeStyle=orthogonalEdgeStyle;rounded=0;orthogonalLoop=1;jettySize=auto;html=1;exitX=1;exitY=0.5;exitDx=0;exitDy=0;fontStyle=1" parent="1" source="NjBpwdwdp16Q7vjj-qCS-106" target="NjBpwdwdp16Q7vjj-qCS-102" edge="1">
          <mxGeometry relative="1" as="geometry">
            <mxPoint x="5110" y="1521.9999999999995" as="sourcePoint" />
            <Array as="points">
              <mxPoint x="4730" y="1465" />
              <mxPoint x="4730" y="1825" />
            </Array>
          </mxGeometry>
        </mxCell>
        <mxCell id="NjBpwdwdp16Q7vjj-qCS-69" value="&lt;font style=&quot;font-size: 18px;&quot;&gt;&lt;span class=&quot;hljs-number&quot;&gt;0.1&lt;/span&gt; Input Parameters Request&lt;/font&gt;" style="text;whiteSpace=wrap;html=1;fontStyle=1" parent="1" vertex="1">
          <mxGeometry x="4700" y="1280" width="190" height="40" as="geometry" />
        </mxCell>
        <mxCell id="NjBpwdwdp16Q7vjj-qCS-74" value="" style="rounded=0;whiteSpace=wrap;html=1;fontStyle=1" parent="1" vertex="1">
          <mxGeometry x="5960" y="930" width="720" height="560" as="geometry" />
        </mxCell>
        <mxCell id="NjBpwdwdp16Q7vjj-qCS-85" style="edgeStyle=orthogonalEdgeStyle;rounded=0;orthogonalLoop=1;jettySize=auto;html=1;fontStyle=1" parent="1" source="NjBpwdwdp16Q7vjj-qCS-75" target="NjBpwdwdp16Q7vjj-qCS-77" edge="1">
          <mxGeometry relative="1" as="geometry" />
        </mxCell>
        <mxCell id="NjBpwdwdp16Q7vjj-qCS-75" value="&lt;font style=&quot;font-size: 18px;&quot;&gt;1. 0 DETAIL OF PARAMETERS&lt;/font&gt;" style="ellipse;whiteSpace=wrap;html=1;aspect=fixed;fontStyle=1" parent="1" vertex="1">
          <mxGeometry x="6115" y="960" width="140" height="140" as="geometry" />
        </mxCell>
        <mxCell id="NjBpwdwdp16Q7vjj-qCS-76" value="&lt;font style=&quot;font-size: 18px;&quot;&gt;3.0&amp;nbsp; ALGORITHM IN APPLIED&lt;/font&gt;" style="ellipse;whiteSpace=wrap;html=1;aspect=fixed;fontStyle=1" parent="1" vertex="1">
          <mxGeometry x="6510" y="1260" width="140" height="140" as="geometry" />
        </mxCell>
        <mxCell id="NjBpwdwdp16Q7vjj-qCS-84" style="edgeStyle=orthogonalEdgeStyle;rounded=0;orthogonalLoop=1;jettySize=auto;html=1;entryX=1.04;entryY=0.349;entryDx=0;entryDy=0;entryPerimeter=0;fontStyle=1" parent="1" source="NjBpwdwdp16Q7vjj-qCS-77" target="NjBpwdwdp16Q7vjj-qCS-80" edge="1">
          <mxGeometry relative="1" as="geometry">
            <mxPoint x="5965" y="1345" as="targetPoint" />
          </mxGeometry>
        </mxCell>
        <mxCell id="NjBpwdwdp16Q7vjj-qCS-92" style="edgeStyle=orthogonalEdgeStyle;rounded=0;orthogonalLoop=1;jettySize=auto;html=1;exitX=1;exitY=0.5;exitDx=0;exitDy=0;fontStyle=1" parent="1" source="NjBpwdwdp16Q7vjj-qCS-77" target="NjBpwdwdp16Q7vjj-qCS-76" edge="1">
          <mxGeometry relative="1" as="geometry" />
        </mxCell>
        <mxCell id="NjBpwdwdp16Q7vjj-qCS-77" value="&lt;font style=&quot;font-size: 18px;&quot;&gt;2.0 USER DATA IS PROCESSED&lt;/font&gt;" style="ellipse;whiteSpace=wrap;html=1;aspect=fixed;fontStyle=1" parent="1" vertex="1">
          <mxGeometry x="6110" y="1270" width="150" height="150" as="geometry" />
        </mxCell>
        <mxCell id="NjBpwdwdp16Q7vjj-qCS-99" style="edgeStyle=orthogonalEdgeStyle;rounded=0;orthogonalLoop=1;jettySize=auto;html=1;entryX=0;entryY=0.75;entryDx=0;entryDy=0;fontStyle=1" parent="1" source="NjBpwdwdp16Q7vjj-qCS-78" target="NjBpwdwdp16Q7vjj-qCS-98" edge="1">
          <mxGeometry relative="1" as="geometry" />
        </mxCell>
        <mxCell id="NjBpwdwdp16Q7vjj-qCS-78" value="&lt;font style=&quot;font-size: 18px;&quot;&gt;4.0&amp;nbsp; DISEAS IS PREDICTED&lt;/font&gt;" style="ellipse;whiteSpace=wrap;html=1;aspect=fixed;fontStyle=1" parent="1" vertex="1">
          <mxGeometry x="6490" y="945" width="140" height="140" as="geometry" />
        </mxCell>
        <mxCell id="NjBpwdwdp16Q7vjj-qCS-88" style="edgeStyle=orthogonalEdgeStyle;rounded=0;orthogonalLoop=1;jettySize=auto;html=1;exitX=1;exitY=0.25;exitDx=0;exitDy=0;fontStyle=1" parent="1" source="NjBpwdwdp16Q7vjj-qCS-79" target="NjBpwdwdp16Q7vjj-qCS-75" edge="1">
          <mxGeometry relative="1" as="geometry" />
        </mxCell>
        <mxCell id="NjBpwdwdp16Q7vjj-qCS-79" value="&lt;span&gt;&lt;font style=&quot;font-size: 18px;&quot;&gt;USER&lt;/font&gt;&lt;/span&gt;" style="rounded=0;whiteSpace=wrap;html=1;fontStyle=1" parent="1" vertex="1">
          <mxGeometry x="5760" y="1035" width="120" height="60" as="geometry" />
        </mxCell>
        <mxCell id="NjBpwdwdp16Q7vjj-qCS-80" value="" style="shape=document;whiteSpace=wrap;html=1;boundedLbl=1;fontStyle=1" parent="1" vertex="1">
          <mxGeometry x="5760" y="1320" width="120" height="80" as="geometry" />
        </mxCell>
        <mxCell id="NjBpwdwdp16Q7vjj-qCS-81" value="" style="shape=document;whiteSpace=wrap;html=1;boundedLbl=1;fontStyle=1" parent="1" vertex="1">
          <mxGeometry x="5750" y="1340" width="120" height="80" as="geometry" />
        </mxCell>
        <mxCell id="NjBpwdwdp16Q7vjj-qCS-82" value="&lt;font style=&quot;font-size: 14px;&quot;&gt;DATA SET&lt;/font&gt;" style="shape=document;whiteSpace=wrap;html=1;boundedLbl=1;fontStyle=1" parent="1" vertex="1">
          <mxGeometry x="5740" y="1360" width="120" height="80" as="geometry" />
        </mxCell>
        <mxCell id="NjBpwdwdp16Q7vjj-qCS-89" value="&lt;span&gt;&lt;font style=&quot;font-size: 18px;&quot;&gt;0.1 ENTER&lt;/font&gt;&lt;/span&gt;" style="text;html=1;align=center;verticalAlign=middle;resizable=0;points=[];autosize=1;strokeColor=none;fillColor=none;fontStyle=1" parent="1" vertex="1">
          <mxGeometry x="5975" y="995" width="110" height="40" as="geometry" />
        </mxCell>
        <mxCell id="NjBpwdwdp16Q7vjj-qCS-90" value="&lt;span&gt;&lt;font style=&quot;font-size: 18px;&quot;&gt;USER DATSET&lt;/font&gt;&lt;/span&gt;" style="text;html=1;align=center;verticalAlign=middle;resizable=0;points=[];autosize=1;strokeColor=none;fillColor=none;fontStyle=1" parent="1" vertex="1">
          <mxGeometry x="5930" y="1295" width="150" height="40" as="geometry" />
        </mxCell>
        <mxCell id="NjBpwdwdp16Q7vjj-qCS-93" style="edgeStyle=orthogonalEdgeStyle;rounded=0;orthogonalLoop=1;jettySize=auto;html=1;exitX=0.5;exitY=0;exitDx=0;exitDy=0;entryX=0.651;entryY=0.996;entryDx=0;entryDy=0;entryPerimeter=0;fontStyle=1" parent="1" source="NjBpwdwdp16Q7vjj-qCS-76" target="NjBpwdwdp16Q7vjj-qCS-78" edge="1">
          <mxGeometry relative="1" as="geometry" />
        </mxCell>
        <mxCell id="NjBpwdwdp16Q7vjj-qCS-94" value="&lt;span&gt;&lt;font style=&quot;font-size: 24px;&quot;&gt;SYSTEM&lt;/font&gt;&lt;/span&gt;" style="text;html=1;align=center;verticalAlign=middle;resizable=0;points=[];autosize=1;strokeColor=none;fillColor=none;fontStyle=1" parent="1" vertex="1">
          <mxGeometry x="6255" y="935" width="120" height="40" as="geometry" />
        </mxCell>
        <mxCell id="NjBpwdwdp16Q7vjj-qCS-95" value="&lt;font style=&quot;font-size: 18px;&quot;&gt;1.1 USER DATA TRNSFERRED&lt;/font&gt;" style="text;html=1;align=center;verticalAlign=middle;resizable=0;points=[];autosize=1;strokeColor=none;fillColor=none;fontStyle=1" parent="1" vertex="1">
          <mxGeometry x="5910" y="1190" width="280" height="40" as="geometry" />
        </mxCell>
        <mxCell id="NjBpwdwdp16Q7vjj-qCS-96" value="&lt;font style=&quot;font-size: 18px;&quot;&gt;3.1 Algorithm predict result&lt;/font&gt;" style="text;html=1;align=center;verticalAlign=middle;resizable=0;points=[];autosize=1;strokeColor=none;fillColor=none;fontStyle=1" parent="1" vertex="1">
          <mxGeometry x="6330" y="1175" width="240" height="40" as="geometry" />
        </mxCell>
        <mxCell id="NjBpwdwdp16Q7vjj-qCS-97" value="&lt;font style=&quot;font-size: 18px;&quot;&gt;2.1 user data and dataset compared&lt;/font&gt;" style="text;html=1;align=center;verticalAlign=middle;resizable=0;points=[];autosize=1;strokeColor=none;fillColor=none;fontStyle=1" parent="1" vertex="1">
          <mxGeometry x="6230" y="1380" width="310" height="40" as="geometry" />
        </mxCell>
        <mxCell id="NjBpwdwdp16Q7vjj-qCS-98" value="&lt;font style=&quot;font-size: 18px;&quot;&gt;U1-PROCESER&lt;/font&gt;" style="rounded=1;whiteSpace=wrap;html=1;absoluteArcSize=1;arcSize=14;strokeWidth=2;fontStyle=1" parent="1" vertex="1">
          <mxGeometry x="6800" y="935" width="100" height="100" as="geometry" />
        </mxCell>
        <mxCell id="NjBpwdwdp16Q7vjj-qCS-100" value="&lt;font style=&quot;font-size: 14px; font-weight: normal;&quot;&gt;4.1 RESULT IS DISPLAY&lt;/font&gt;" style="text;html=1;align=center;verticalAlign=middle;resizable=0;points=[];autosize=1;strokeColor=none;fillColor=none;fontStyle=1" parent="1" vertex="1">
          <mxGeometry x="6620" y="1035" width="180" height="30" as="geometry" />
        </mxCell>
        <mxCell id="NjBpwdwdp16Q7vjj-qCS-108" style="edgeStyle=orthogonalEdgeStyle;rounded=0;orthogonalLoop=1;jettySize=auto;html=1;exitX=1;exitY=0.5;exitDx=0;exitDy=0;entryX=0;entryY=0.5;entryDx=0;entryDy=0;fontStyle=1" parent="1" source="NjBpwdwdp16Q7vjj-qCS-102" target="NjBpwdwdp16Q7vjj-qCS-107" edge="1">
          <mxGeometry relative="1" as="geometry" />
        </mxCell>
        <mxCell id="NjBpwdwdp16Q7vjj-qCS-102" value="&lt;font style=&quot;font-size: 18px;&quot;&gt;&lt;span style=&quot;text-align: left;&quot;&gt;Parameters&lt;/span&gt;&amp;nbsp;DATA SET - 2.1&lt;/font&gt;" style="ellipse;whiteSpace=wrap;html=1;aspect=fixed;fontStyle=1" parent="1" vertex="1">
          <mxGeometry x="4810" y="1710" width="150" height="150" as="geometry" />
        </mxCell>
        <mxCell id="NjBpwdwdp16Q7vjj-qCS-104" value="&lt;font style=&quot;font-size: 18px;&quot;&gt;2.1 FORWORD DATA STORE&lt;/font&gt;" style="text;html=1;align=center;verticalAlign=middle;resizable=0;points=[];autosize=1;strokeColor=none;fillColor=none;fontStyle=1" parent="1" vertex="1">
          <mxGeometry x="4500" y="1635" width="260" height="40" as="geometry" />
        </mxCell>
        <mxCell id="NjBpwdwdp16Q7vjj-qCS-106" value="&lt;span style=&quot;font-size: 18px;&quot;&gt;&amp;nbsp;Input&amp;nbsp;&lt;/span&gt;&lt;span style=&quot;font-size: 18px; text-align: left;&quot;&gt;Parameters&lt;br&gt;&lt;/span&gt;&lt;span style=&quot;font-size: 18px;&quot;&gt;&amp;nbsp;(&lt;/span&gt;&lt;span class=&quot;hljs-number&quot; style=&quot;font-size: 18px;&quot;&gt;2.0&lt;/span&gt;&lt;span style=&quot;font-size: 18px;&quot;&gt;)&lt;/span&gt;" style="ellipse;whiteSpace=wrap;html=1;aspect=fixed;fontStyle=1" parent="1" vertex="1">
          <mxGeometry x="4690" y="1400" width="130" height="130" as="geometry" />
        </mxCell>
        <mxCell id="NjBpwdwdp16Q7vjj-qCS-112" style="edgeStyle=orthogonalEdgeStyle;rounded=0;orthogonalLoop=1;jettySize=auto;html=1;exitX=1;exitY=0.5;exitDx=0;exitDy=0;entryX=0.5;entryY=1;entryDx=0;entryDy=0;fontStyle=1" parent="1" source="NjBpwdwdp16Q7vjj-qCS-107" target="NjBpwdwdp16Q7vjj-qCS-111" edge="1">
          <mxGeometry relative="1" as="geometry" />
        </mxCell>
        <mxCell id="NjBpwdwdp16Q7vjj-qCS-107" value="&lt;font style=&quot;font-size: 18px;&quot;&gt;PROCESS PREDICTION (3.0)&lt;/font&gt;" style="ellipse;whiteSpace=wrap;html=1;aspect=fixed;fontStyle=1" parent="1" vertex="1">
          <mxGeometry x="5170" y="1720" width="137.5" height="137.5" as="geometry" />
        </mxCell>
        <mxCell id="NjBpwdwdp16Q7vjj-qCS-110" value="&lt;font style=&quot;font-size: 18px;&quot;&gt;&lt;span class=&quot;hljs-number&quot;&gt;2.2&lt;/span&gt;&amp;nbsp;Retrieve&amp;nbsp; parameters Data&lt;/font&gt;" style="text;html=1;align=center;verticalAlign=middle;resizable=0;points=[];autosize=1;strokeColor=none;fillColor=none;fontStyle=1" parent="1" vertex="1">
          <mxGeometry x="4950" y="1845" width="260" height="40" as="geometry" />
        </mxCell>
        <mxCell id="NjBpwdwdp16Q7vjj-qCS-121" style="edgeStyle=orthogonalEdgeStyle;rounded=0;orthogonalLoop=1;jettySize=auto;html=1;entryX=0.5;entryY=1;entryDx=0;entryDy=0;fontStyle=1" parent="1" source="NjBpwdwdp16Q7vjj-qCS-111" target="NjBpwdwdp16Q7vjj-qCS-119" edge="1">
          <mxGeometry relative="1" as="geometry">
            <mxPoint x="5115" y="1600" as="targetPoint" />
            <Array as="points">
              <mxPoint x="5530" y="1505" />
            </Array>
          </mxGeometry>
        </mxCell>
        <mxCell id="NjBpwdwdp16Q7vjj-qCS-111" value="&lt;font style=&quot;font-size: 18px;&quot;&gt;Prediction Model (4&lt;span class=&quot;hljs-number&quot;&gt;.0&lt;/span&gt;)&amp;nbsp; &amp;nbsp;&amp;nbsp;&lt;/font&gt;" style="ellipse;whiteSpace=wrap;html=1;aspect=fixed;fontStyle=1" parent="1" vertex="1">
          <mxGeometry x="5435" y="1560" width="150" height="150" as="geometry" />
        </mxCell>
        <mxCell id="NjBpwdwdp16Q7vjj-qCS-113" value="&lt;font style=&quot;font-size: 18px;&quot;&gt;&lt;span class=&quot;hljs-number&quot;&gt;3.1&lt;/span&gt;&amp;nbsp;Forward Data &lt;span class=&quot;hljs-keyword&quot;&gt;for&lt;/span&gt; Prediction&lt;/font&gt;" style="text;whiteSpace=wrap;html=1;fontStyle=1" parent="1" vertex="1">
          <mxGeometry x="5373" y="1820" width="200" height="40" as="geometry" />
        </mxCell>
        <mxCell id="NjBpwdwdp16Q7vjj-qCS-114" value="&lt;font style=&quot;font-size: 18px;&quot;&gt;&lt;span class=&quot;hljs-number&quot;&gt;4.1&lt;/span&gt;&amp;nbsp;Predicted Disease Response&lt;/font&gt;" style="text;whiteSpace=wrap;html=1;fontStyle=1" parent="1" vertex="1">
          <mxGeometry x="5230" y="1550" width="210" height="40" as="geometry" />
        </mxCell>
        <mxCell id="NjBpwdwdp16Q7vjj-qCS-124" style="edgeStyle=orthogonalEdgeStyle;rounded=0;orthogonalLoop=1;jettySize=auto;html=1;exitX=0.5;exitY=0;exitDx=0;exitDy=0;entryX=0.687;entryY=1.024;entryDx=0;entryDy=0;entryPerimeter=0;fontStyle=1" parent="1" source="NjBpwdwdp16Q7vjj-qCS-119" target="NjBpwdwdp16Q7vjj-qCS-57" edge="1">
          <mxGeometry relative="1" as="geometry">
            <mxPoint x="4970" y="1285" as="targetPoint" />
          </mxGeometry>
        </mxCell>
        <mxCell id="NjBpwdwdp16Q7vjj-qCS-119" value="&lt;font style=&quot;font-size: 18px;&quot;&gt;Display &lt;span class=&quot;hljs-keyword&quot;&gt;Result&lt;/span&gt; (5&lt;span class=&quot;hljs-number&quot;&gt;.0&lt;/span&gt;)&amp;nbsp;&lt;/font&gt;" style="ellipse;whiteSpace=wrap;html=1;aspect=fixed;fontStyle=1" parent="1" vertex="1">
          <mxGeometry x="5295" y="1350" width="140" height="140" as="geometry" />
        </mxCell>
        <mxCell id="NjBpwdwdp16Q7vjj-qCS-122" value="&lt;font style=&quot;font-size: 18px;&quot;&gt;&lt;span class=&quot;hljs-number&quot;&gt;5.1&lt;/span&gt;&amp;nbsp;Display &lt;span class=&quot;hljs-keyword&quot;&gt;Result&lt;/span&gt; Response&lt;/font&gt;" style="text;whiteSpace=wrap;html=1;fontStyle=1" parent="1" vertex="1">
          <mxGeometry x="5110" y="1300" width="190" height="40" as="geometry" />
        </mxCell>
        <mxCell id="NjBpwdwdp16Q7vjj-qCS-125" value="&lt;span&gt;&lt;u&gt;&lt;span&gt;&lt;font style=&quot;font-size: 18px;&quot;&gt;DATA FLOW DIAGRAM -&amp;nbsp; SECONG LEVEL&amp;nbsp;&lt;/font&gt;&lt;/span&gt;&lt;/u&gt;&lt;/span&gt;" style="rounded=0;whiteSpace=wrap;html=1;fontStyle=1" parent="1" vertex="1">
          <mxGeometry x="4630" y="995" width="990" height="60" as="geometry" />
        </mxCell>
        <mxCell id="NjBpwdwdp16Q7vjj-qCS-126" value="&lt;h1&gt;&lt;font style=&quot;font-size: 24px;&quot; face=&quot;Georgia&quot;&gt;Sequence Diagram&lt;/font&gt;&lt;/h1&gt;" style="rounded=0;whiteSpace=wrap;html=1;fontStyle=1" parent="1" vertex="1">
          <mxGeometry x="7280" y="40" width="990" height="60" as="geometry" />
        </mxCell>
        <mxCell id="NjBpwdwdp16Q7vjj-qCS-127" value="&lt;font style=&quot;font-size: 24px;&quot;&gt;DiseasePrediction Application():&lt;/font&gt;" style="shape=umlLifeline;perimeter=lifelinePerimeter;whiteSpace=wrap;html=1;container=1;dropTarget=0;collapsible=0;recursiveResize=0;outlineConnect=0;portConstraint=eastwest;newEdgeStyle={&quot;curved&quot;:0,&quot;rounded&quot;:0};size=70;fontStyle=1" parent="1" vertex="1">
          <mxGeometry x="7210" y="150" width="210" height="1320" as="geometry" />
        </mxCell>
        <mxCell id="NjBpwdwdp16Q7vjj-qCS-128" value="" style="shape=umlLifeline;perimeter=lifelinePerimeter;whiteSpace=wrap;html=1;container=1;dropTarget=0;collapsible=0;recursiveResize=0;outlineConnect=0;portConstraint=eastwest;newEdgeStyle={&quot;curved&quot;:0,&quot;rounded&quot;:0};participant=umlActor;fontStyle=1" parent="1" vertex="1">
          <mxGeometry x="7000" y="160" width="70" height="1310" as="geometry" />
        </mxCell>
        <mxCell id="NjBpwdwdp16Q7vjj-qCS-135" value="&lt;font style=&quot;font-size: 24px;&quot;&gt;PredictionResult ():&lt;/font&gt;" style="shape=umlLifeline;perimeter=lifelinePerimeter;whiteSpace=wrap;html=1;container=1;dropTarget=0;collapsible=0;recursiveResize=0;outlineConnect=0;portConstraint=eastwest;newEdgeStyle={&quot;curved&quot;:0,&quot;rounded&quot;:0};size=70;fontStyle=1" parent="1" vertex="1">
          <mxGeometry x="8390" y="160" width="210" height="1250" as="geometry" />
        </mxCell>
        <mxCell id="NjBpwdwdp16Q7vjj-qCS-136" value="&lt;font style=&quot;font-size: 24px;&quot;&gt;UserInput ()&lt;/font&gt;" style="shape=umlLifeline;perimeter=lifelinePerimeter;whiteSpace=wrap;html=1;container=1;dropTarget=0;collapsible=0;recursiveResize=0;outlineConnect=0;portConstraint=eastwest;newEdgeStyle={&quot;curved&quot;:0,&quot;rounded&quot;:0};size=70;fontStyle=1" parent="1" vertex="1">
          <mxGeometry x="8100" y="160" width="210" height="1250" as="geometry" />
        </mxCell>
        <mxCell id="NjBpwdwdp16Q7vjj-qCS-137" value="&lt;font style=&quot;font-size: 24px;&quot;&gt;PredictionModel():&lt;/font&gt;" style="shape=umlLifeline;perimeter=lifelinePerimeter;whiteSpace=wrap;html=1;container=1;dropTarget=0;collapsible=0;recursiveResize=0;outlineConnect=0;portConstraint=eastwest;newEdgeStyle={&quot;curved&quot;:0,&quot;rounded&quot;:0};size=70;fontStyle=1" parent="1" vertex="1">
          <mxGeometry x="7800" y="160" width="210" height="1310" as="geometry" />
        </mxCell>
        <mxCell id="NjBpwdwdp16Q7vjj-qCS-138" value="&lt;font style=&quot;font-size: 24px;&quot;&gt;&amp;nbsp;Disease ():&lt;/font&gt;" style="shape=umlLifeline;perimeter=lifelinePerimeter;whiteSpace=wrap;html=1;container=1;dropTarget=0;collapsible=0;recursiveResize=0;outlineConnect=0;portConstraint=eastwest;newEdgeStyle={&quot;curved&quot;:0,&quot;rounded&quot;:0};size=70;fontStyle=1" parent="1" vertex="1">
          <mxGeometry x="7500" y="150" width="210" height="1300" as="geometry" />
        </mxCell>
        <mxCell id="NjBpwdwdp16Q7vjj-qCS-139" value="&lt;font style=&quot;font-size: 24px;&quot;&gt;Select disease ()&lt;/font&gt;" style="endArrow=open;endSize=12;dashed=1;html=1;rounded=0;fontStyle=1" parent="1" target="NjBpwdwdp16Q7vjj-qCS-127" edge="1">
          <mxGeometry width="160" relative="1" as="geometry">
            <mxPoint x="7050" y="370" as="sourcePoint" />
            <mxPoint x="7210" y="370" as="targetPoint" />
          </mxGeometry>
        </mxCell>
        <mxCell id="NjBpwdwdp16Q7vjj-qCS-140" value="&lt;font style=&quot;font-size: 24px;&quot;&gt;displaydisease()&lt;/font&gt;" style="endArrow=open;endSize=12;dashed=1;html=1;rounded=0;fontStyle=1" parent="1" edge="1">
          <mxGeometry x="0.0566" y="18" width="160" relative="1" as="geometry">
            <mxPoint x="7320" y="424" as="sourcePoint" />
            <mxPoint x="7585" y="424" as="targetPoint" />
            <mxPoint as="offset" />
          </mxGeometry>
        </mxCell>
        <mxCell id="NjBpwdwdp16Q7vjj-qCS-142" value="" style="html=1;verticalAlign=bottom;endArrow=open;dashed=1;endSize=8;curved=0;rounded=0;fontStyle=1" parent="1" edge="1">
          <mxGeometry relative="1" as="geometry">
            <mxPoint x="7605.5" y="500" as="sourcePoint" />
            <mxPoint x="7314.5" y="500" as="targetPoint" />
          </mxGeometry>
        </mxCell>
        <mxCell id="NjBpwdwdp16Q7vjj-qCS-143" value="&lt;font style=&quot;font-size: 18px;&quot;&gt;getUserInput()  &lt;/font&gt;" style="text;html=1;align=center;verticalAlign=middle;resizable=0;points=[];autosize=1;strokeColor=none;fillColor=none;fontStyle=1" parent="1" vertex="1">
          <mxGeometry x="7400" y="453" width="140" height="40" as="geometry" />
        </mxCell>
        <mxCell id="NjBpwdwdp16Q7vjj-qCS-144" value="" style="endArrow=open;endSize=12;dashed=1;html=1;rounded=0;fontStyle=1" parent="1" edge="1">
          <mxGeometry width="160" relative="1" as="geometry">
            <mxPoint x="7050" y="640" as="sourcePoint" />
            <mxPoint x="7315" y="640" as="targetPoint" />
          </mxGeometry>
        </mxCell>
        <mxCell id="NjBpwdwdp16Q7vjj-qCS-145" value="&lt;font style=&quot;font-size: 24px;&quot;&gt;inputValues()&lt;/font&gt;" style="text;html=1;align=center;verticalAlign=middle;resizable=0;points=[];autosize=1;strokeColor=none;fillColor=none;fontStyle=1" parent="1" vertex="1">
          <mxGeometry x="7080" y="593" width="160" height="40" as="geometry" />
        </mxCell>
        <mxCell id="NjBpwdwdp16Q7vjj-qCS-146" value="&lt;font style=&quot;font-size: 24px;&quot;&gt;getInputValues()&lt;/font&gt;" style="text;whiteSpace=wrap;html=1;fontStyle=1" parent="1" vertex="1">
          <mxGeometry x="7380" y="660" width="120" height="40" as="geometry" />
        </mxCell>
        <mxCell id="NjBpwdwdp16Q7vjj-qCS-148" value="" style="endArrow=open;endSize=12;dashed=1;html=1;rounded=0;fontStyle=1" parent="1" edge="1">
          <mxGeometry width="160" relative="1" as="geometry">
            <mxPoint x="7320" y="710" as="sourcePoint" />
            <mxPoint x="7585" y="710" as="targetPoint" />
          </mxGeometry>
        </mxCell>
        <mxCell id="NjBpwdwdp16Q7vjj-qCS-151" value="" style="endArrow=open;endSize=12;dashed=1;html=1;rounded=0;fontStyle=1" parent="1" edge="1">
          <mxGeometry width="160" relative="1" as="geometry">
            <mxPoint x="7617.5" y="937" as="sourcePoint" />
            <mxPoint x="7882.5" y="937" as="targetPoint" />
          </mxGeometry>
        </mxCell>
        <mxCell id="NjBpwdwdp16Q7vjj-qCS-152" value="" style="endArrow=open;endSize=12;dashed=1;html=1;rounded=0;fontStyle=1" parent="1" edge="1">
          <mxGeometry width="160" relative="1" as="geometry">
            <mxPoint x="7337.5" y="878" as="sourcePoint" />
            <mxPoint x="7602.5" y="878" as="targetPoint" />
          </mxGeometry>
        </mxCell>
        <mxCell id="NjBpwdwdp16Q7vjj-qCS-154" value="&lt;font style=&quot;font-size: 24px;&quot;&gt;predict()&lt;/font&gt;" style="text;whiteSpace=wrap;html=1;fontStyle=1" parent="1" vertex="1">
          <mxGeometry x="7440" y="830" width="80" height="40" as="geometry" />
        </mxCell>
        <mxCell id="NjBpwdwdp16Q7vjj-qCS-155" value="&lt;font style=&quot;font-size: 24px;&quot;&gt;predict(input)&lt;/font&gt;" style="text;whiteSpace=wrap;html=1;fontStyle=1" parent="1" vertex="1">
          <mxGeometry x="7710" y="880" width="100" height="40" as="geometry" />
        </mxCell>
        <mxCell id="NjBpwdwdp16Q7vjj-qCS-156" value="" style="html=1;verticalAlign=bottom;endArrow=open;dashed=1;endSize=8;curved=0;rounded=0;fontStyle=1" parent="1" edge="1">
          <mxGeometry relative="1" as="geometry">
            <mxPoint x="8205.5" y="730" as="sourcePoint" />
            <mxPoint x="7914.5" y="730" as="targetPoint" />
          </mxGeometry>
        </mxCell>
        <mxCell id="NjBpwdwdp16Q7vjj-qCS-157" value="&lt;font style=&quot;font-size: 24px;&quot;&gt;getInputValues()&lt;/font&gt;" style="text;whiteSpace=wrap;html=1;fontStyle=1" parent="1" vertex="1">
          <mxGeometry x="8000" y="680" width="120" height="40" as="geometry" />
        </mxCell>
        <mxCell id="NjBpwdwdp16Q7vjj-qCS-158" value="&lt;font style=&quot;font-size: 24px;&quot;&gt;create()&lt;/font&gt;" style="text;whiteSpace=wrap;html=1;fontStyle=1" parent="1" vertex="1">
          <mxGeometry x="8030" y="810" width="70" height="40" as="geometry" />
        </mxCell>
        <mxCell id="NjBpwdwdp16Q7vjj-qCS-166" value="" style="endArrow=open;endSize=12;dashed=1;html=1;rounded=0;fontStyle=1" parent="1" edge="1">
          <mxGeometry width="160" relative="1" as="geometry">
            <mxPoint x="7940" y="810" as="sourcePoint" />
            <mxPoint x="8205" y="810" as="targetPoint" />
          </mxGeometry>
        </mxCell>
        <mxCell id="NjBpwdwdp16Q7vjj-qCS-167" value="" style="endArrow=open;endSize=12;dashed=1;html=1;rounded=0;fontStyle=1" parent="1" edge="1">
          <mxGeometry width="160" relative="1" as="geometry">
            <mxPoint x="8210" y="945" as="sourcePoint" />
            <mxPoint x="8475" y="945" as="targetPoint" />
          </mxGeometry>
        </mxCell>
        <mxCell id="NjBpwdwdp16Q7vjj-qCS-169" value="" style="html=1;verticalAlign=bottom;endArrow=open;dashed=1;endSize=8;curved=0;rounded=0;fontStyle=1" parent="1" edge="1">
          <mxGeometry relative="1" as="geometry">
            <mxPoint x="8205.5" y="1014" as="sourcePoint" />
            <mxPoint x="7914.5" y="1014" as="targetPoint" />
          </mxGeometry>
        </mxCell>
        <mxCell id="NjBpwdwdp16Q7vjj-qCS-170" value="&lt;font style=&quot;font-size: 24px;&quot;&gt;PredictionResult&lt;/font&gt;" style="text;whiteSpace=wrap;html=1;fontStyle=1" parent="1" vertex="1">
          <mxGeometry x="7980" y="960" width="120" height="40" as="geometry" />
        </mxCell>
        <mxCell id="NjBpwdwdp16Q7vjj-qCS-171" value="&lt;font style=&quot;font-size: 24px;&quot;&gt;&amp;nbsp;predict() &lt;/font&gt;" style="text;html=1;align=center;verticalAlign=middle;resizable=0;points=[];autosize=1;strokeColor=none;fillColor=none;fontStyle=1" parent="1" vertex="1">
          <mxGeometry x="8240" y="903" width="120" height="40" as="geometry" />
        </mxCell>
        <mxCell id="NjBpwdwdp16Q7vjj-qCS-172" value="" style="html=1;verticalAlign=bottom;endArrow=open;dashed=1;endSize=8;curved=0;rounded=0;fontStyle=1" parent="1" source="NjBpwdwdp16Q7vjj-qCS-137" edge="1">
          <mxGeometry relative="1" as="geometry">
            <mxPoint x="7615.5" y="1173" as="sourcePoint" />
            <mxPoint x="7324.5" y="1173" as="targetPoint" />
          </mxGeometry>
        </mxCell>
        <mxCell id="NjBpwdwdp16Q7vjj-qCS-173" value="&lt;font style=&quot;font-size: 24px;&quot;&gt;getResult()&amp;nbsp; &amp;nbsp; &amp;nbsp; &amp;nbsp; &amp;nbsp;&lt;/font&gt;" style="text;html=1;align=center;verticalAlign=middle;resizable=0;points=[];autosize=1;strokeColor=none;fillColor=none;fontStyle=1" parent="1" vertex="1">
          <mxGeometry x="7360" y="1135" width="200" height="40" as="geometry" />
        </mxCell>
        <mxCell id="NjBpwdwdp16Q7vjj-qCS-174" value="" style="html=1;verticalAlign=bottom;endArrow=open;dashed=1;endSize=8;curved=0;rounded=0;fontStyle=1" parent="1" source="NjBpwdwdp16Q7vjj-qCS-127" edge="1">
          <mxGeometry relative="1" as="geometry">
            <mxPoint x="7260" y="1260" as="sourcePoint" />
            <mxPoint x="7040" y="1250" as="targetPoint" />
          </mxGeometry>
        </mxCell>
        <mxCell id="NjBpwdwdp16Q7vjj-qCS-175" value="&lt;font style=&quot;font-size: 24px;&quot;&gt;displayResult()&lt;/font&gt;" style="text;whiteSpace=wrap;html=1;fontStyle=1" parent="1" vertex="1">
          <mxGeometry x="7130" y="1200" width="110" height="40" as="geometry" />
        </mxCell>
        <mxCell id="NjBpwdwdp16Q7vjj-qCS-176" value="&lt;font style=&quot;font-size: 18px;&quot;&gt;USER&amp;nbsp;&lt;/font&gt;" style="text;html=1;align=center;verticalAlign=middle;resizable=0;points=[];autosize=1;strokeColor=none;fillColor=none;fontStyle=1" parent="1" vertex="1">
          <mxGeometry x="7000" y="110" width="80" height="40" as="geometry" />
        </mxCell>
        <mxCell id="NjBpwdwdp16Q7vjj-qCS-178" value="&lt;h1&gt;&lt;font style=&quot;font-size: 36px;&quot;&gt;Component diagram&amp;nbsp;&lt;/font&gt;&lt;/h1&gt;" style="rounded=0;whiteSpace=wrap;html=1;fontStyle=1" parent="1" vertex="1">
          <mxGeometry x="9180" y="100" width="990" height="60" as="geometry" />
        </mxCell>
        <mxCell id="NjBpwdwdp16Q7vjj-qCS-179" value="&lt;p class=&quot;MsoListParagraph&quot; style=&quot;margin-left:39.5pt;mso-add-space:auto;&lt;br/&gt;text-align:justify;text-indent:-18.0pt;line-height:150%;mso-list:l0 level1 lfo1&quot;&gt;&lt;font style=&quot;font-size: 36px;&quot;&gt;&lt;span lang=&quot;EN-US&quot; style=&quot;line-height: 150%; font-family: Wingdings;&quot;&gt;&lt;span style=&quot;font-variant-numeric: normal; font-variant-east-asian: normal; font-variant-alternates: normal; font-kerning: auto; font-optical-sizing: auto; font-feature-settings: normal; font-variation-settings: normal; font-variant-position: normal; font-stretch: normal; line-height: normal; font-family: &amp;quot;Times New Roman&amp;quot;;&quot;&gt;&amp;nbsp;&lt;br&gt;&lt;/span&gt;&lt;/span&gt;&lt;/font&gt;&lt;span&gt;&lt;span lang=&quot;EN-US&quot; style=&quot;line-height: 150%;&quot;&gt;&lt;font style=&quot;font-size: 24px;&quot;&gt;Streamlit Module&lt;/font&gt;&lt;span style=&quot;font-size: 12pt;&quot;&gt;&lt;/span&gt;&lt;/span&gt;&lt;/span&gt;&lt;/p&gt;" style="shape=module;align=left;spacingLeft=20;align=center;verticalAlign=top;whiteSpace=wrap;html=1;fontStyle=1" parent="1" vertex="1">
          <mxGeometry x="8990" y="260" width="400" height="150" as="geometry" />
        </mxCell>
        <mxCell id="NjBpwdwdp16Q7vjj-qCS-183" value="&lt;p class=&quot;MsoListParagraph&quot; style=&quot;margin-left:39.5pt;mso-add-space:auto;&lt;br/&gt;text-align:justify;text-indent:-18.0pt;line-height:150%;mso-list:l0 level1 lfo1&quot;&gt;&lt;font style=&quot;font-size: 36px;&quot;&gt;&lt;font style=&quot;&quot;&gt;&lt;span lang=&quot;EN-US&quot; style=&quot;line-height: 150%; font-family: Wingdings;&quot;&gt;&lt;span style=&quot;font-variant-numeric: normal; font-variant-east-asian: normal; font-variant-alternates: normal; font-kerning: auto; font-optical-sizing: auto; font-feature-settings: normal; font-variation-settings: normal; font-variant-position: normal; font-stretch: normal; line-height: normal; font-family: &amp;quot;Times New Roman&amp;quot;;&quot;&gt;&amp;nbsp;&lt;br&gt;&lt;/span&gt;&lt;/span&gt;&lt;/font&gt;&lt;font style=&quot;&quot;&gt;SERVER&lt;/font&gt;&lt;/font&gt;&lt;/p&gt;" style="shape=module;align=left;spacingLeft=20;align=center;verticalAlign=top;whiteSpace=wrap;html=1;fontStyle=1" parent="1" vertex="1">
          <mxGeometry x="9410" y="620" width="400" height="150" as="geometry" />
        </mxCell>
        <mxCell id="NjBpwdwdp16Q7vjj-qCS-184" value="&lt;p class=&quot;MsoListParagraph&quot; style=&quot;margin-left:39.5pt;mso-add-space:auto;&lt;br/&gt;text-align:justify;text-indent:-18.0pt;line-height:150%;mso-list:l0 level1 lfo1&quot;&gt;&lt;font style=&quot;font-size: 36px;&quot;&gt;&lt;span lang=&quot;EN-US&quot; style=&quot;line-height: 150%; font-family: Wingdings;&quot;&gt;&lt;span style=&quot;font-variant-numeric: normal; font-variant-east-asian: normal; font-variant-alternates: normal; font-kerning: auto; font-optical-sizing: auto; font-feature-settings: normal; font-variation-settings: normal; font-variant-position: normal; font-stretch: normal; line-height: normal; font-family: &amp;quot;Times New Roman&amp;quot;;&quot;&gt;&amp;nbsp;&lt;br&gt;&lt;/span&gt;&lt;/span&gt;&lt;/font&gt;&lt;span style=&quot;font-size: 24px;&quot;&gt;&lt;span&gt;PANDAS&lt;/span&gt;&lt;/span&gt;&lt;/p&gt;" style="shape=module;align=left;spacingLeft=20;align=center;verticalAlign=top;whiteSpace=wrap;html=1;fontStyle=1" parent="1" vertex="1">
          <mxGeometry x="9850" y="255" width="400" height="150" as="geometry" />
        </mxCell>
        <mxCell id="NjBpwdwdp16Q7vjj-qCS-185" value="&lt;p class=&quot;MsoListParagraph&quot; style=&quot;margin-left:39.5pt;mso-add-space:auto;&lt;br/&gt;text-align:justify;text-indent:-18.0pt;line-height:150%;mso-list:l0 level1 lfo1&quot;&gt;&lt;br&gt;&lt;/p&gt;&lt;p class=&quot;MsoListParagraph&quot; style=&quot;margin-left:39.5pt;mso-add-space:auto;&lt;br/&gt;text-align:justify;text-indent:-18.0pt;line-height:150%;mso-list:l0 level1 lfo1&quot;&gt;&lt;font face=&quot;Times New Roman&quot;&gt;&lt;span style=&quot;font-size: 36px;&quot;&gt;JUPITOR NOTE BOOK&lt;/span&gt;&lt;/font&gt;&lt;/p&gt;" style="shape=module;align=left;spacingLeft=20;align=center;verticalAlign=top;whiteSpace=wrap;html=1;fontStyle=1" parent="1" vertex="1">
          <mxGeometry x="10080" y="908" width="400" height="150" as="geometry" />
        </mxCell>
        <mxCell id="NjBpwdwdp16Q7vjj-qCS-186" value="&lt;p class=&quot;MsoListParagraph&quot; style=&quot;margin-left:39.5pt;mso-add-space:auto;&lt;br/&gt;text-align:justify;text-indent:-18.0pt;line-height:150%;mso-list:l0 level1 lfo1&quot;&gt;&lt;br&gt;&lt;/p&gt;&lt;p class=&quot;MsoListParagraph&quot; style=&quot;margin-left:39.5pt;mso-add-space:auto;&lt;br/&gt;text-align:justify;text-indent:-18.0pt;line-height:150%;mso-list:l0 level1 lfo1&quot;&gt;&lt;br&gt;&lt;/p&gt;&lt;p class=&quot;MsoListParagraph&quot; style=&quot;margin-left:39.5pt;mso-add-space:auto;&lt;br/&gt;text-align:justify;text-indent:-18.0pt;line-height:150%;mso-list:l0 level1 lfo1&quot;&gt;&lt;font face=&quot;Times New Roman&quot;&gt;&lt;span style=&quot;font-size: 36px;&quot;&gt;user interface&lt;/span&gt;&lt;/font&gt;&lt;/p&gt;" style="shape=module;align=left;spacingLeft=20;align=center;verticalAlign=top;whiteSpace=wrap;html=1;fontStyle=1" parent="1" vertex="1">
          <mxGeometry x="8870" y="925" width="400" height="150" as="geometry" />
        </mxCell>
        <mxCell id="NjBpwdwdp16Q7vjj-qCS-189" value="" style="endArrow=none;html=1;rounded=0;exitX=0.069;exitY=0.009;exitDx=0;exitDy=0;exitPerimeter=0;fontStyle=1" parent="1" source="NjBpwdwdp16Q7vjj-qCS-183" target="NjBpwdwdp16Q7vjj-qCS-179" edge="1">
          <mxGeometry width="50" height="50" relative="1" as="geometry">
            <mxPoint x="9610" y="450" as="sourcePoint" />
            <mxPoint x="9660" y="400" as="targetPoint" />
          </mxGeometry>
        </mxCell>
        <mxCell id="NjBpwdwdp16Q7vjj-qCS-190" value="" style="endArrow=none;html=1;rounded=0;exitX=0.069;exitY=0.009;exitDx=0;exitDy=0;exitPerimeter=0;fontStyle=1" parent="1" edge="1">
          <mxGeometry width="50" height="50" relative="1" as="geometry">
            <mxPoint x="9448" y="631" as="sourcePoint" />
            <mxPoint x="9265" y="420" as="targetPoint" />
          </mxGeometry>
        </mxCell>
        <mxCell id="NjBpwdwdp16Q7vjj-qCS-191" value="" style="endArrow=none;html=1;rounded=0;exitX=0;exitY=1;exitDx=10;exitDy=0;exitPerimeter=0;fontStyle=1" parent="1" source="NjBpwdwdp16Q7vjj-qCS-183" target="NjBpwdwdp16Q7vjj-qCS-186" edge="1">
          <mxGeometry width="50" height="50" relative="1" as="geometry">
            <mxPoint x="9363" y="911" as="sourcePoint" />
            <mxPoint x="9180" y="700" as="targetPoint" />
          </mxGeometry>
        </mxCell>
        <mxCell id="NjBpwdwdp16Q7vjj-qCS-192" value="" style="endArrow=none;html=1;rounded=0;exitX=0.35;exitY=1.033;exitDx=0;exitDy=0;exitPerimeter=0;entryX=1;entryY=0;entryDx=0;entryDy=0;fontStyle=1" parent="1" source="NjBpwdwdp16Q7vjj-qCS-184" target="NjBpwdwdp16Q7vjj-qCS-183" edge="1">
          <mxGeometry width="50" height="50" relative="1" as="geometry">
            <mxPoint x="9983" y="820" as="sourcePoint" />
            <mxPoint x="9800" y="609" as="targetPoint" />
          </mxGeometry>
        </mxCell>
        <mxCell id="NjBpwdwdp16Q7vjj-qCS-193" value="" style="endArrow=none;html=1;rounded=0;fontStyle=1" parent="1" edge="1">
          <mxGeometry width="50" height="50" relative="1" as="geometry">
            <mxPoint x="10090" y="950" as="sourcePoint" />
            <mxPoint x="9810" y="760" as="targetPoint" />
          </mxGeometry>
        </mxCell>
        <mxCell id="NjBpwdwdp16Q7vjj-qCS-194" value="&lt;h1&gt;&lt;font style=&quot;font-size: 36px;&quot;&gt;&lt;font face=&quot;Helvetica&quot; style=&quot;&quot;&gt;&lt;br&gt;&lt;/font&gt;&lt;font face=&quot;UD5dIWQhTzqnThL8I7cP&quot; style=&quot;&quot;&gt;&lt;br&gt;&lt;/font&gt;&lt;font face=&quot;UD5dIWQhTzqnThL8I7cP&quot; style=&quot;&quot;&gt;Prediction Engine&lt;/font&gt;&lt;/font&gt;&lt;/h1&gt;" style="shape=module;align=left;spacingLeft=20;align=center;verticalAlign=top;whiteSpace=wrap;html=1;fontStyle=1" parent="1" vertex="1">
          <mxGeometry x="9480" y="1075" width="360" height="170" as="geometry" />
        </mxCell>
        <mxCell id="NjBpwdwdp16Q7vjj-qCS-196" value="" style="endArrow=none;html=1;rounded=0;entryX=0.5;entryY=1;entryDx=0;entryDy=0;fontStyle=1" parent="1" target="NjBpwdwdp16Q7vjj-qCS-183" edge="1">
          <mxGeometry width="50" height="50" relative="1" as="geometry">
            <mxPoint x="9620" y="1070" as="sourcePoint" />
            <mxPoint x="9635" y="930" as="targetPoint" />
          </mxGeometry>
        </mxCell>
        <mxCell id="2z5COon9l6sAhe7B8v7s-2" value="" style="edgeStyle=orthogonalEdgeStyle;rounded=0;orthogonalLoop=1;jettySize=auto;html=1;exitX=1;exitY=0.5;exitDx=0;exitDy=0;exitPerimeter=0;fontStyle=1" edge="1" parent="1" source="FDHRYnm7bNjMq-bkD99A-1" target="2z5COon9l6sAhe7B8v7s-1">
          <mxGeometry relative="1" as="geometry">
            <mxPoint x="800" y="240" as="sourcePoint" />
            <mxPoint x="960" y="335" as="targetPoint" />
          </mxGeometry>
        </mxCell>
        <mxCell id="2z5COon9l6sAhe7B8v7s-22" style="edgeStyle=orthogonalEdgeStyle;rounded=0;orthogonalLoop=1;jettySize=auto;html=1;exitX=0.5;exitY=1;exitDx=0;exitDy=0;entryX=0.5;entryY=0;entryDx=0;entryDy=0;" edge="1" parent="1" source="2z5COon9l6sAhe7B8v7s-1" target="2z5COon9l6sAhe7B8v7s-5">
          <mxGeometry relative="1" as="geometry" />
        </mxCell>
        <mxCell id="2z5COon9l6sAhe7B8v7s-1" value="&lt;font style=&quot;font-size: 14px;&quot;&gt;&lt;b&gt;DATA COLLECTION&lt;/b&gt;&lt;/font&gt;" style="rounded=0;whiteSpace=wrap;html=1;" vertex="1" parent="1">
          <mxGeometry x="885" y="210" width="120" height="60" as="geometry" />
        </mxCell>
        <mxCell id="2z5COon9l6sAhe7B8v7s-21" style="edgeStyle=orthogonalEdgeStyle;rounded=0;orthogonalLoop=1;jettySize=auto;html=1;entryX=0.5;entryY=0;entryDx=0;entryDy=0;" edge="1" parent="1" source="2z5COon9l6sAhe7B8v7s-5" target="2z5COon9l6sAhe7B8v7s-6">
          <mxGeometry relative="1" as="geometry" />
        </mxCell>
        <mxCell id="2z5COon9l6sAhe7B8v7s-5" value="&lt;span style=&quot;font-size: 14px; font-weight: 700;&quot;&gt;Feature Extraction&lt;/span&gt;" style="shape=parallelogram;perimeter=parallelogramPerimeter;whiteSpace=wrap;html=1;fixedSize=1;" vertex="1" parent="1">
          <mxGeometry x="865" y="340" width="160" height="60" as="geometry" />
        </mxCell>
        <mxCell id="2z5COon9l6sAhe7B8v7s-6" value="&lt;span style=&quot;font-size: 14px; font-weight: 700;&quot;&gt;Feature Selection&lt;/span&gt;" style="shape=parallelogram;perimeter=parallelogramPerimeter;whiteSpace=wrap;html=1;fixedSize=1;" vertex="1" parent="1">
          <mxGeometry x="865" y="458" width="160" height="60" as="geometry" />
        </mxCell>
        <mxCell id="2z5COon9l6sAhe7B8v7s-10" value="" style="rounded=0;whiteSpace=wrap;html=1;" vertex="1" parent="1">
          <mxGeometry x="750" y="585" width="460" height="200" as="geometry" />
        </mxCell>
        <mxCell id="2z5COon9l6sAhe7B8v7s-15" style="edgeStyle=orthogonalEdgeStyle;rounded=0;orthogonalLoop=1;jettySize=auto;html=1;exitX=1;exitY=0.5;exitDx=0;exitDy=0;" edge="1" parent="1" source="2z5COon9l6sAhe7B8v7s-11" target="2z5COon9l6sAhe7B8v7s-12">
          <mxGeometry relative="1" as="geometry" />
        </mxCell>
        <mxCell id="2z5COon9l6sAhe7B8v7s-11" value="&lt;font style=&quot;font-size: 14px;&quot;&gt;&lt;b&gt;CLASSIFICATION OF DATA&lt;/b&gt;&lt;/font&gt;" style="rounded=1;whiteSpace=wrap;html=1;" vertex="1" parent="1">
          <mxGeometry x="780" y="635" width="120" height="60" as="geometry" />
        </mxCell>
        <mxCell id="2z5COon9l6sAhe7B8v7s-12" value="&lt;font style=&quot;font-size: 14px;&quot;&gt;&lt;b&gt;TRAINING DATASET&lt;/b&gt;&lt;/font&gt;" style="rounded=0;whiteSpace=wrap;html=1;" vertex="1" parent="1">
          <mxGeometry x="1050" y="590" width="120" height="60" as="geometry" />
        </mxCell>
        <mxCell id="2z5COon9l6sAhe7B8v7s-13" value="&lt;font style=&quot;font-size: 14px;&quot;&gt;&lt;b&gt;TESTING DATASET&amp;nbsp;&lt;/b&gt;&lt;/font&gt;" style="rounded=0;whiteSpace=wrap;html=1;" vertex="1" parent="1">
          <mxGeometry x="1060" y="710" width="120" height="60" as="geometry" />
        </mxCell>
        <mxCell id="2z5COon9l6sAhe7B8v7s-17" value="" style="endArrow=classic;html=1;rounded=0;entryX=0;entryY=0.5;entryDx=0;entryDy=0;" edge="1" parent="1" target="2z5COon9l6sAhe7B8v7s-13">
          <mxGeometry width="50" height="50" relative="1" as="geometry">
            <mxPoint x="970" y="670" as="sourcePoint" />
            <mxPoint x="1000" y="710" as="targetPoint" />
            <Array as="points">
              <mxPoint x="970" y="690" />
              <mxPoint x="970" y="740" />
            </Array>
          </mxGeometry>
        </mxCell>
        <mxCell id="2z5COon9l6sAhe7B8v7s-23" style="edgeStyle=orthogonalEdgeStyle;rounded=0;orthogonalLoop=1;jettySize=auto;html=1;exitX=0.5;exitY=1;exitDx=0;exitDy=0;entryX=0.428;entryY=-0.012;entryDx=0;entryDy=0;entryPerimeter=0;" edge="1" parent="1" source="2z5COon9l6sAhe7B8v7s-6" target="2z5COon9l6sAhe7B8v7s-10">
          <mxGeometry relative="1" as="geometry" />
        </mxCell>
        <mxCell id="2z5COon9l6sAhe7B8v7s-24" style="edgeStyle=orthogonalEdgeStyle;rounded=0;orthogonalLoop=1;jettySize=auto;html=1;exitX=0.5;exitY=1;exitDx=0;exitDy=0;entryX=0.5;entryY=0;entryDx=0;entryDy=0;entryPerimeter=0;" edge="1" parent="1" source="2z5COon9l6sAhe7B8v7s-10" target="FDHRYnm7bNjMq-bkD99A-4">
          <mxGeometry relative="1" as="geometry" />
        </mxCell>
        <mxCell id="2z5COon9l6sAhe7B8v7s-25" style="edgeStyle=orthogonalEdgeStyle;rounded=0;orthogonalLoop=1;jettySize=auto;html=1;exitX=0;exitY=0;exitDx=0;exitDy=27.5;exitPerimeter=0;entryX=0.396;entryY=0.989;entryDx=0;entryDy=0;entryPerimeter=0;" edge="1" parent="1" source="FDHRYnm7bNjMq-bkD99A-4" target="FDHRYnm7bNjMq-bkD99A-10">
          <mxGeometry relative="1" as="geometry" />
        </mxCell>
      </root>
    </mxGraphModel>
  </diagram>
</mxfile>
